<?xml version="1.0" encoding="utf-8"?>
<!-- Generator: Adobe Illustrator 27.2.0, SVG Export Plug-In . SVG Version: 6.00 Build 0)  -->
<svg version="1.1" id="Layer_1" xmlns="http://www.w3.org/2000/svg" xmlns:xlink="http://www.w3.org/1999/xlink" x="0px" y="0px"
	 viewBox="0 0 183.4 281.2" style="enable-background:new 0 0 183.4 281.2;" xml:space="preserve">
<style type="text/css">
	.st0{fill:#133759;}
	.st1{fill:#AEDEF8;}
	.st2{fill:#526C85;}
	.st3{fill:#85BC25;}
	.st4{fill:#FED028;}
	.st5{fill:#FEFFFF;}
	.st6{fill:#E43722;}
	.st7{fill:#53614C;}
	.st8{fill:#C7BD81;}
	.st9{fill:#E8E3A9;}
	.st10{fill:#52803D;}
	.st11{fill:#028F3C;}
	.st12{fill:#48A730;}
	.st13{fill:#0198D6;}
	.st14{fill:#949468;}
	.st15{fill:#5CBDE8;}
</style>
<path class="st0" d="M182,4.3c0,48.5,0.2,97.1-0.1,145.6c-0.1,9.9-2.6,19.5-6.9,28.6c-5,10.6-11.6,20.1-19.1,29
	c-9.2,10.8-19.8,19.9-31.8,27.2c-6.4,3.9-13.3,7.2-20.4,9.5c-5.7,1.9-11.7,2.2-18.1,0.7c-13-3.1-24-9.5-34.3-17.5
	c-5.2-4.1-10.4-8.2-15-13c-10.6-10.9-19.8-22.9-26.1-36.8C7.7,172.1,5.3,166.3,5,160c-0.3-4.8-1.3-9.6-1.3-14.5
	C3.6,98.5,3.6,51.4,3.6,4.3c0.3-0.2,0.5-0.5,0.7-0.7h176.3C180.9,4,181.6,3.9,182,4.3L182,4.3z"/>
<path class="st0" d="M26.5,251.1h132.6c3.6-1.8,7.4-0.5,11.1-0.9c1.8-0.2,3.8,0.4,5.2-1.2c0.2-3.5-7.4-8.6-13.9-9.3
	c-0.1,0.6,0.1,1.1,0.3,1.7c0.2,1.2,0.3,2.3,0,3.5c-0.1,0.5-0.4,1-0.6,1.4c-0.2,0.3-0.4,0.5-0.7,0.7c-0.5,0.2-1,0.1-1.4-0.3
	c0.1-2.4-0.7-4.6-1.3-7c-0.8-3-1.9-6.1-1.4-9.7c0.7,0.4,1.3,0.6,1.8,1c3.2,2.6,6.3,5.5,10.6,6.3c2.9,2.3,6.8,2.7,9.8,5
	c1.7,1.2,2.4,2.7,2.9,4.8c0.9,4.3,0.5,8.7,0.6,13c0.1,4.4,0,8.8,0,13.3c-0.6,2.4-2.7,3-4.9,4.1c-11.1,1.5-22.6,0.7-34.1,0.8
	c-42.5,0.1-85,0-127.4,0c-0.9,0-2.2,0.4-2.8-0.1c-1.7-1.4-3.8-0.1-5.6-1.3c-1.5-0.9-2.9-1.6-3.6-4c0-7.5,0-15.8,0-24
	c0-1.3,0.5-2.7,0.7-4c3.1-4.1,8-5.4,12.3-7.5c2.8-1.4,6.4-3,8.5-4.7c1-0.9,2.2-1.6,3.4-2.5c0.8,3.1,0.3,6.2-0.8,9.1
	c-1,2.5-1.1,4.9-1.1,7.4c-0.4,0.4-0.9,0.4-1.4,0.3c-0.3-0.2-0.5-0.4-0.7-0.7c-0.3-0.4-0.5-0.9-0.6-1.4c-0.3-1.4-0.3-2.7,0-4.1
	c0.1-0.5,0.2-0.9,0.4-1.4c0.1-0.7,0.3-1.4,0.5-2c-0.5,0-0.2,0.5-0.4,0.6c-2.8,2.8-6.4,3.9-9.9,5.5s-3.8,2.1-4.3,4.9
	c0.8,1.7,2.4,1.6,4,1.7c2.8,0.1,5.7,0,8.5,0C23.9,250.2,25.3,250,26.5,251.1L26.5,251.1z"/>
<path class="st1" d="M26.5,251.1H10.4c-0.6-0.6-1.1-1.2-1.8-1.8v-2.8c2-2.5,4.8-3.6,7.6-4.7c2.9-1.2,6-2.3,8.1-5
	c0.2-0.2,0.5-0.2,0.7,0v2.9c-0.3,0.2-0.5,0.5-0.7,0.7v5c0.3,0.2,0.5,0.5,0.7,0.7v0.7c0.7,0.6,0.8,1.5,1.4,2.1V251.1L26.5,251.1z"/>
<path class="st1" d="M160.5,239.6v-2.6c2.4,1.4,4.7,2.8,6.9,4.2c0.4,0.2,0.8,0.4,1.2,0.6c2.8,1.2,5.7,2.5,8.2,3.6v4
	c-0.6,0.6-1.1,1.2-1.7,1.8h-16.1V249c0.6-0.6,0.7-1.6,1.4-2.1v-0.7c0.3-0.2,0.5-0.5,0.7-0.7v-4.3C160.8,240.7,161,240,160.5,239.6
	L160.5,239.6z"/>
<path class="st2" d="M160.5,246.8c0.1,1.1-0.3,1.9-1.4,2.1v-2.1H160.5z"/>
<path class="st2" d="M26.5,249c-0.5-0.7-1-1.4-1.4-2.1h1.4V249z"/>
<path class="st2" d="M182,4.3c-0.5-0.2-1-0.5-1.4-0.7C181,3.8,181.5,4.1,182,4.3z"/>
<path class="st2" d="M4.3,3.6C4.1,3.8,3.8,4.1,3.6,4.3C3.8,4.1,4.1,3.8,4.3,3.6z"/>
<path class="st3" d="M22.9,82.5c-1-2.7-2.5-5.3-2.1-8.6c2.8-0.1,5.5-0.3,8.5,1.3c0-3,0-5.4,0-7.7c0-0.7,0.4-1.5,0.6-2.2h3.4
	c1.6,1.5,3,3.1,4.7,4.6c0.5-0.8,1-1.4,1.1-2c0.6-2.8,1.7-5.3,3.8-7.4c0.2-0.2,0-0.7,0-1c0.1-0.4,0.3-0.6,0.7-0.7
	c1.8,0.8,2.7,2.4,3.6,4c1.1,2.2,2.1,4.4,3.1,6.6c1.7-1.3,3.3-2.7,5.1-4.1H59v9.3c2.6-0.3,5.3-0.6,8.2-0.9v5.6
	c-0.6,1.2-1.4,2.7-2.2,4.4c3,0.2,5.9,0.5,8.7,0.7c0.6,4.9-3.5,6.3-5.6,9.3c2.6,0.8,5.2,1.7,7.8,2.5v2.1c-2.2,1.8-4.7,3.7-7.2,5.7
	c-0.4,0.5-0.4,1,0,1.4c2,1,4.1,2.1,6.7,3.4c-3.7,2.3-6.5,4.2-9.3,6c1.2,1.4,2.7,3.2,4.4,5.1c-7.8,4.8-15.6,3.9-24.3,1.1
	c0.7,8,1.3,15.8,2,23.7h-8.6c0.8-7.4,1.5-15,2.3-22.8c-8.4,0.4-16.4,2.5-24.6-1.8c1.7-2,3.2-3.7,4.7-5.4c-2.7-1.6-5.7-3.2-8.8-5
	c1.8-3.4,4.7-4,8-4.6c-3-2.2-5.8-4.3-8.3-6.1v-2.8c2.4-0.8,4.7-1.7,6.8-2.4c-2-2.7-3.9-5.4-6-8.3c3.2-2.5,6.3-1.3,9.2-1.6
	C23.4,83.5,23.4,83,22.9,82.5L22.9,82.5z"/>
<path class="st4" d="M153.3,129.1h-36.7c-0.2-1-0.7-2-0.6-2.9c1.1-8.1,2.6-16.2,3.4-24.4c0.6-5.7,1.2-11.3,2.9-16.8
	c1.1-3.5,3.3-5.8,6.4-8.3v-1.4c-1.5-4.9-5.1-8.9-2.8-14.1c0.9-0.6,1.8-1.2,2.8-1.9h26.3c5.8,3.8,4.1,4.8,2.1,10.8
	c-0.7,2.2-1.8,4.3-2.7,6.7c5.6,3.3,7.2,8.9,8.4,14.7c0.4,2.1,0.9,4.2,1.2,6.3c0.8,7.7,1.5,15.3,1.8,23.3c-0.3-0.6-0.7-1.2-1.3-2.2
	h-29.8c-4.8,0-8.8,1.9-12.2,5.6c0,0.4-0.1,0.8,0,1.1c0.2,0.4,0.6,0.7,0.8,1.1c3.6,0.6,7.3-0.6,11,0.9c0.7-0.3,1.5-0.6,2.4-1v-2.9
	c1.4-1.5,2.9-2.1,4.9-1.8v3.8c0.7,0.6,1.4,1.1,2.5,2c1.5,0.4,2.8-0.8,4.1-2.3v2c1.1,0,2.2,0.1,3.3,0.1c1.1,0,2.1,0,3.1,0
	C155.2,129.1,153.6,128.5,153.3,129.1L153.3,129.1z"/>
<path class="st1" d="M131.8,162.1c-0.5-1.1-1.3-2.2-1.6-3.4c-0.6-2.4-1-4.8-1.5-7.6c3.2,1.7,5.8,3.1,7.5,4.1c5.1,0.8,9.3,1.4,13.5,2
	c0.5,1-0.1,1.8-0.6,2.6c-0.6,1-1.4,1.9-1.8,3.2c2-3,4.2-5.6,7.5-6.9c0,0,0,0,0,0c-0.6,0.2-1.1,0.1-1.6-0.4c0.9-1.4,3-0.7,3.8-2.1
	c1.6-0.2,3.1-0.1,4.8-0.6c1.3-0.4,3.1-0.6,4.7,0.4c1,0.6,2.7-0.2,3.9,0.8c0.4,0.5,0.4,1,0,1.4c-3,0.7-5.6,2.2-7.9,4.1
	c-3.8,3.1-7.2,6.6-10.8,10c-0.5,0.5-0.9,1.1-1.4,1.7c-0.5,0.4-1,0.4-1.4,0v-1.8c-0.8-0.8-1.7-1.6-2.5-2.5c-3.2-0.3-5,1.5-6.1,4.3
	c0.2,0.7,0.5,0.1,0.7,0h4.1c0.5,0.8,1.1,1.6,1.4,2.2c1.1,2.7-1.4,4.5-1.3,6.8c-2,3.5-3.8,7.1-6.6,10.2c-1.2,1.4-2.2,3-3.6,4.2
	c-4.5,4-9.3,7.6-14.7,10.2c-3.2,1.6-6.8,2.7-10.3,4.1c0.7,1.7,2.2,2.8,3.7,3.9c0.4,0.8-0.3,1-0.7,1.4c-2.1,0.2-4.1,0.7-6.1,0.7
	c-6.5,0-12.9-1-19-3.3c-0.5-0.2-1.1-0.3-1.7-0.3c-11.6,0.1-21.5-4.6-31.2-10.3c-8.4-5-14.4-11.9-18.1-21c-1-2.4-2.6-4.5-4-6.8
	c0.2-0.2,0.5-0.5,0.7-0.7c2.1,0.3,4.2,0.5,6.3,0.8c0.1,0,0.3,0,0.4,0c0.5,0,1,0,1.6,0c0.7-0.1,1.4-0.4,2-0.7c1-0.3,1.9-0.8,2.7,0.4
	c0.1,2.4-1.8,2.8-3.5,3.3c-1.1,0.3-2.4-0.2-3.3,1c-0.2,0.6-0.2,1.2,0,1.8c3,6.8,6.7,13.1,13.2,16.9c5.8,3.4,11.8,6.2,18.4,7.8
	c6.7,1.6,13.6,2.6,20.5,2.4c10.2-0.3,20.2-2,29.4-6.6c7.4-3.6,13.8-8.6,18-15.8c0.9-1.6,1.7-3.1,2.2-4.9c0.3-1,0.4-1.9-0.8-2.4
	c-1.1-0.4-1.9,0.3-2.5,1c-5.9,6.4-13.8,7.6-21.7,8.4c-9.6,0.9-18.3-2.4-27-5.7c-6-2.3-12.2-4.1-18.3-4.3c-1.3,0.6-1.2,1.8-1.9,2.5
	c-0.3,0.3-0.7,0.4-1,0.1c-0.6-2.2-1.4-3.6-3.8-6.3c2.7,0,5.2-0.7,7.6,0.4c1.3,0.6,3.1-0.6,4.3,0.8c3.6,0,6.9,1.8,10.5,1.5
	c1.4-0.4,2.7,0.7,4.1,0.4c1.3-0.8,0.5-2.5,1.7-3.3c0.5,0.1,1.1,0.2,1.5,0.5c0.5,0.2,0.9,0.6,1.3,0.9c1.2,1.4,0.6,3.7,2.2,5h5.7
	c0.7,0,1.4,0,2.2,0h5.7c0.5,0,1,0,1.4,0h4.6c-0.7,1.5-1.3,2.7-1.8,3.9c6.2,1.2,16-1.8,20.8-6.3v-3.6c-0.6-1.5-2.5-2.6-2.1-4.7
	c0.1-0.1,0.3-0.2,0.4-0.3c0.8-0.2,1.3,0.3,1.7,1c-1.7-3.8-3.2-7.6-4.9-11.1c-0.1,1.3,0.9,2.7,0.3,4.2
	C132.1,161.9,131.9,162,131.8,162.1L131.8,162.1z"/>
<path class="st5" d="M69.5,178.6v-3.4c3.2-0.4,6.4-0.3,9.5,0.6c3.1,0.9,6.2,1.4,9.2,2.8c2.1,0.9,4.5,1.2,6.5,2.3
	c2.1,1.1,4.5,1.3,6.6,2.2c2.2,0.9,4.7,0.7,6.7,2c0.4,0.3,1.2,0,1.8,0c2,0,4.1-0.2,6.1,0c3.8,0.4,7.2-1.1,10.8-1.7
	c1.4-0.2,2.8-0.7,4.1-1.2c3.5-1.5,6.6-3.5,8.4-7.1c1,0.3,2.1-0.8,2.7,0.7c1,1.7-0.2,2.9-0.9,4.2c-3.6,6-8.8,10-15.3,12.3
	c-4.7,1.7-9.5,2.9-14.6,3.2c-5.1,0.3-10.2,0.6-15.3,0.6c-2.5,0-5-0.3-7.3-1.3c-0.3-0.2-0.5-0.5-0.5-0.9c0.7-1.2,1.9-1.3,3.1-1.6
	c0.9-0.2,1.9-0.1,2.7-1.1c0-1.7-1.2-2.6-2.4-3.6c-3.4-2.9-7.4-4.3-11.7-5c-1.8-0.3-3.4-0.6-4.9-2.4c0.5,2.1,1.9,2.5,3.3,2.8
	c2.3,0.5,4.6,1.2,6.8,2.1c1.6,0.6,3.1,1.3,4.3,2.5c1.1,0.9,2.2,1.9,2,3.5c-0.8,1.4-2,1.3-3.2,1.4c-5.1,0.2-10-0.6-14.9-1.8
	c-1.4-0.3-2.6-1.1-3.8-2c-0.8-0.6-1.6-1.5-3.1-1.9c-4.4,1.3-8.8,0.8-12.8-2.7c-0.9,1.6-2.2,2.5-4.1,2.5c-2.2,0-3.3-0.9-3.7-3.1
	c-0.1-0.9,0.2-1.9-0.3-3c-1.5-2.4-4.7-2.4-6.8-4.1c0.3-0.2,0.6-0.7,0.9-0.7c1.4-0.1,2.8,0,4.3,0c1-0.8,3-0.8,2.7-2.9
	c0.1-0.2,0.1-0.4,0.2-0.5c0.2-0.3,0.5-0.6,0.9-0.7c0.4-0.2,0.7-0.2,1.1-0.3c3.9-0.3,7.8-0.5,11.4,1.6c0.4,0.4,1,0.3,1.4,0.7
	c2.9,1.4,4.7,3.9,6.4,6.5c0.4,0.3,0.6,0.9,1.2,0.9c0-0.4-0.1-0.8-0.1-1.1C69.2,179.4,69.1,179,69.5,178.6L69.5,178.6z"/>
<path class="st5" d="M93.1,17.9c1.6-2.9,4.1-3.8,7.3-3.6c3.4,0.2,6.9,0.1,10.4,0c0.7,0,1.5-0.3,2.6-0.5c1,2.5,1,5.5,1.6,8.4
	c0.6,2.9,1,5.9,1.2,8.9c0.2,2.9,0.9,5.8,1.4,8.8c-0.3,0.3-0.7,0.7-1.1,1.1c-1.7,0-3.7,0.6-5.2-0.2c-1.6-0.8-3.4-0.8-4.9-1.1
	c-2.5-0.4-5.2-0.7-8,0.3c-1.6,0.7-2.9,1.7-4.3,2.5c-0.4,0.2-0.7,0.5-1.4,0.9c-0.1-1-0.2-1.7-0.2-2.3c0-5.4,0-10.7,0-16.1
	c0-0.5,0.3-1.3-0.7-1.3C91.6,21.6,92.1,19.7,93.1,17.9L93.1,17.9z"/>
<path class="st4" d="M86.7,102.6c-0.4-0.1-1,0-1.3-0.3c-0.8-0.7-1.5-1.5-2.3-2.2c0-1.7,0-3.3,0-5.3c1.3-0.9,2.8-1.8,4.7-3
	c-1.1-0.9-2.1-1.8-3.2-2.7V73.2h2.1c0.3-0.2,0.7-0.4,1.1-0.5c1.7-0.7,3.5-0.4,5.3-0.4c1.2,0,2.4-0.1,3.6,0.1
	c0.6,0.1,1.1,0.4,1.6,0.8h2.8c0.2,5.3,0,10.7,0.1,15.9c-1.1,0.9-2.1,1.7-3.1,2.6c1.7,1.5,3.1,2.8,4.5,4v4.5
	c-0.8,0.8-1.7,1.6-2.6,2.5h-1.7c-2.4,0.7-4.9,0.2-7.4,0.4c-1,0.2-2,0.7-3,0.3C87.4,103.1,87,102.9,86.7,102.6L86.7,102.6z"/>
<path class="st5" d="M84.6,38.7c-1.6,0-3.1,0.2-4.7,0.6c-1.4,0.4-3,0.2-4.3,0.9c-2.1,1.1-4.3,0.5-6.3,0.7c-0.4-0.4-0.6-0.6-1.1-1.1
	c0.2-1.1,0-2.3,0.6-3.7c0.7-1.6,0.2-3.5,0.7-5.4c0.7-2.4,0.6-5,0.8-7.5c0.2-1.6,0.4-3.1,0.7-4.7c0.3-1.3,0.7-2.6,1.1-4h16.6
	c0.3,0.4,0.6,0.9,0.9,1.4c0.2,0.4,0.2-0.2,0.2,0.3C90.2,24.1,89.8,32,84.6,38.7L84.6,38.7z"/>
<path class="st4" d="M45.9,46.6v-1.4c-0.6-0.6-0.3-1.3-0.4-1.9c-0.1,0.6,0.2,1.3-0.4,1.9V47c-3.5,3.8-7.9,5.8-12.9,6.9
	c-2.5,0.5-5.2,1.2-7.3,3.2c-0.9,0.8-2.5,0.9-4.3,1.6c0.1-0.1-0.3,0.3-0.8,0.8h-2.4c0-0.2,0-0.5,0.1-0.5c4.7-3.5,8.6-7.7,12-12.5
	c1.5-2.2,3.6-3.9,5.8-5.6c2.3-1.8,5-3.1,7.4-4.9c0.4-2.8,2.7-4.3,5-5.7h3.7c1.1,1.2,2.4,2.6,3.9,4.2c0.4,0.1,1.2,0.4,2.1,0.7
	c-0.2,0.4-0.2,0.7-0.3,0.7c-1.5,0.5-2.9,1-4.4,1.5c-1.5,2-0.9,4.2-1,6.4c-1.6,1.1-2.9,2.7-4.8,3.3C46.4,47,46.1,46.9,45.9,46.6
	L45.9,46.6z"/>
<path class="st4" d="M98.2,219.6c1.5,0.9,3.1,1.8,4.6,2.7c-0.4,2.4-0.7,4.2-1,6.2c0.9,0.7,2,1.6,3.3,2.6c-1.8,0.8-3.1,1.3-4.9,2H85
	c-0.6-0.3-1.3-0.8-2-1c-0.6-0.2-1.3-0.4-1.6-0.4c0.8-0.8,1.8-1.8,2.4-2.5c-0.4-2.6-0.7-4.5-1-6.1c1.3-1.4,1.5-3.6,3.8-3.5
	c1.6-1.4,3.6-1,5.5-1c1,0,2.1,0,3.1,0C96.3,218.6,97.3,218.8,98.2,219.6L98.2,219.6z"/>
<path class="st1" d="M93,46c1.8-1.2,3.9-2,6.3-2.4c2.3-0.4,4.6-1.1,7-1.2c3.5-0.2,7-0.4,10.6,1c-0.6,1.8-0.3,3.9-1.8,5.5
	c-6.2-2.4-16.7-1.2-22.4,2.1c-8.1-4.2-15.1-4-23-2.3c-0.3-1.8-0.7-3.5-1.1-5.5C76.9,41.6,84.9,41.7,93,46L93,46z"/>
<path class="st4" d="M98.2,126.3c1.5,0.9,3.1,1.8,4.3,2.5v4.7c-1.3,0.8-2.8,1.8-4.3,2.8c-1.1,0.6-2.3,0.3-3.5,0.3
	c-1.4,0-2.8,0-4.2,0.5c-1.2,0.2-2.2-0.1-3.1-0.9h-1.8c-1-1-2-2-3.1-3.2v-3.5c0.8-2.3,2.5-3.5,4.9-3.4c1.6-1.3,3.6-1,5.4-1
	c1.2,0,2.5-0.1,3.7,0.2C97.2,125.5,97.7,125.9,98.2,126.3L98.2,126.3z"/>
<path class="st4" d="M87.4,170h-1.8c-1-1-2-2-3.1-3.2v-3.5c0.8-2.4,2.5-3.5,4.9-3.4c1.6-1.3,3.6-1,5.4-1c1.2,0,2.5-0.1,3.7,0.1
	c0.6,0.1,1.1,0.5,1.6,0.9c0.8,0.2,1.7,0.5,2.4,0.7c0.6,0.9,1.2,1.7,1.8,2.8v3.5c-0.8,0.8-1.7,1.8-2.7,2.6c-0.4,0.3-1,0.4-1.6,0.5
	c-1.1,0.6-2.3,0.3-3.5,0.3c-1.4,0-2.8,0-4.2,0.5C89.3,171.1,88.3,170.8,87.4,170L87.4,170z"/>
<path class="st5" d="M93.1,160h-5.7v-0.7c-0.2-0.2-0.2-0.3-0.2-0.5c0.1-0.2,0.1-0.2,0.2-0.2v-22.2h2.9c0.5,0.4,1.2,0.7,1.4,1.4
	c0.5,0.1,1.4-0.4,1.4,0.7c1,1.1,1.1,2.6,1.1,4c0,4.5,0,9,0,13.5C94.3,157.4,94.2,158.8,93.1,160L93.1,160z"/>
<path class="st5" d="M93.1,126.3h-5.7v-0.7c-0.2-0.2-0.2-0.3-0.2-0.5s0.1-0.2,0.2-0.2V104c-0.4-0.5-0.4-1,0-1.4h2.9
	c0.2,0.2,0.3,0.3,0.2,0.5s-0.2,0.2-0.2,0.2c0.4,1.1,1.6,0.9,2.3,1.4c0.2,0.2,0.4,0.5,0.6,0.7c0.6,0.7,1,1.6,1,2.6
	c0.2,5.2,0.2,10.4,0,15.6C94.2,124.7,93.8,125.5,93.1,126.3L93.1,126.3z"/>
<path class="st1" d="M84.6,38.7c0-0.4-0.2-0.8,0-1.1c1.6-2.2,2.4-4.7,3-7.3c0.1-0.4,0.5-0.8,0.5-1.2c0.3-2.8,0.3-5.6,0.8-8.3
	c0.3-1.7,0.8-3.3,0.7-5.1c0.7-0.1,1.3,0.1,1.8,0.7c0.5,0.6,1.2,1,1.8,1.5v3.8c-0.5,0.7-1,1.3-1.4,2c-0.5,3.5-1,7-1.5,10.5
	c-0.3,2.2-0.6,4.3-1,6.8C87.7,40.2,86.1,39.5,84.6,38.7L84.6,38.7z"/>
<path class="st1" d="M93.1,160v-21.5c0.2,0,0.5-0.1,0.7,0c1,0.7,1.9,1.4,2.9,2.1c1.4,2.8,0.6,5.8,0.7,8.7c0.1,3.2,0.2,6.3-0.1,9.5
	c-0.1,0.4-0.3,0.8-0.6,1.2L93.1,160L93.1,160z"/>
<path class="st1" d="M93.1,126.3v-20.8c1.2,0.3,3.3,1.7,4.3,2.9c-0.1,5.6,0.1,11.2-0.1,16.8c-0.1,0.4-0.3,0.8-0.6,1.1H93.1
	L93.1,126.3z"/>
<path class="st4" d="M46.6,172.9c-0.4,0.1-0.9,0.1-1.3,0.2c-0.5,0.1-1,0.3-1.6,0.5c-0.6,0.6-1.4,0.3-2.1,0.4c-0.5,0-1.1,0.1-1.5-0.4
	c-0.5-0.6-0.9-1.3-1.4-2V170c0.5-0.6,1.2-0.6,1.9-0.5c0.3,0.1,0.6,0.2,0.9,0.4c0.1,0.1,0.3,0.1,0.4,0.2c0.8,0.5,1.6,0.5,2.5,0
	c1-0.7,1.8-1.6,2-2.9c0.1-1.1,0.1-2.1-0.9-3c-3.3-1.3-3.5,2.4-5.5,3.4c-0.7,0.2-1.4,0.1-2-0.4c-0.2-2.2,1.1-3.6,2.5-5
	c1.7-1.7,3.7-1.5,5.7-1.3c1.8,0.3,2,2.3,3.3,3.2c0,1.8,0,3.6,0,5.3c0,0.1,0,0.3,0,0.4c-0.3,0.6-0.6,1.2-1.1,1.8
	c-0.3,0.3-0.7,0.4-1,0.7C47,172.4,46.8,172.6,46.6,172.9L46.6,172.9z"/>
<path class="st4" d="M89.6,64.6v-6.4c2.1-0.2,4.1,0,6.4-0.1v6.5c0.3,0.4,0.2,0.7-0.1,1c-0.9,0.6-1.8,0.6-2.8,0.6
	c-1.2,0-2.4,0-3.4-0.6C89.3,65.3,89.3,64.9,89.6,64.6z"/>
<path class="st5" d="M89.6,65.3h3.6c1.6,2.6,1.6,5.3,0,7.9h-5.7c-0.2-0.2-0.2-0.3-0.2-0.5s0.1-0.2,0.2-0.2v-7.2h1.4
	C89.1,65,89.3,65,89.6,65.3z"/>
<path class="st6" d="M46.6,46.6c1.1-0.9,2.2-1.9,3.4-2.9h1.6c0.3,4.4-1.9,7.4-5.6,9.6c-0.8,0.5-1.5,0.3-2.3,0.4
	c-0.7-1.4,0.1-2.5,0.7-3.6c0.5-0.7,1-1.4,1.4-2.2C46.3,47.7,46.1,47,46.6,46.6L46.6,46.6z"/>
<path class="st5" d="M87.4,170h2.9c0.5,0.4,1.2,0.7,1.4,1.4c0.5,0.1,1.4-0.4,1.4,0.7v5.1c-1.3-0.3-2.7-0.2-3.2-0.9
	c-0.7-1-2.3,0.3-2.5-1.3L87.4,170L87.4,170z"/>
<path class="st4" d="M44.4,50.2c0,1.2,0.2,2.5-0.7,3.6c-0.9,0.3-1.9,0.6-3.5,1.1c1.3,1.5,2.4,2.7,3.5,3.9c-0.2,0.2-0.5,0.5-0.7,0.7
	c-0.5-0.2-1.1-0.2-1.5-0.5c-0.9-0.6-1.7-1.4-2.7-2.2v-1.4c-1-0.1-1.9-0.2-3.6-0.4C38.6,53.2,42.1,52.8,44.4,50.2L44.4,50.2z"/>
<path class="st5" d="M153.3,155.7h2.9c-4.4,2.9-7.5,6-9.7,10.6c-0.8-2.7-0.1-4.5,1.2-6c0.8-1,1.4-2,2-3.1
	C150.6,155.8,151.9,155.6,153.3,155.7L153.3,155.7z"/>
<path class="st1" d="M47.3,172.2c0.2-0.2,0.5-0.5,0.7-0.7c0.5-0.7,0.9-1.5,1.4-2.1c1.8,0,3.5,0,5.3,0c0.8,0.6,1.3,1.4,2.6,1.6
	c1,0.1,2.5,0.5,2.8,2c-2.2-0.2-4.3-0.6-6.5-0.7C51.6,172.1,49.4,172.2,47.3,172.2L47.3,172.2z"/>
<path class="st5" d="M96.7,159.3v-18.6c0.5,0.3,0.9,0.6,1.4,1v17.7C97.7,159.7,97.2,159.7,96.7,159.3L96.7,159.3z"/>
<path class="st1" d="M47.3,167.9c-0.6,0.9-1.1,1.7-1.9,2.9h-1c-1,0.5-1.9,0.5-2.9,0c-0.2-0.2-0.5-0.5-0.7-0.7h-4
	c-0.4-0.5-0.8-1-1.5-1.9c1.2-0.1,1.9-0.2,2.6-0.3c0.7-0.6,1.7-0.1,2.5-0.6C42.8,166.7,45.1,166.4,47.3,167.9z"/>
<path class="st5" d="M96.7,125.6c0-5.3,0-10.6,0-15.9c0-0.4,0.4-0.8,0.7-1.3c1,0,0.7,0.8,0.7,1.3c0,5.3,0,10.6,0,15.9
	C97.7,126,97.2,126,96.7,125.6z"/>
<path class="st5" d="M92.4,219.6h-5.7V215c2.1,0.6,3.9,1.1,5.7,1.6C93.2,217.6,93.2,218.6,92.4,219.6L92.4,219.6z"/>
<path class="st4" d="M95.7,56.5h-5.9c1.1-1.6,1.9-2.9,2.8-4.4C93.7,53.6,94.6,54.9,95.7,56.5z"/>
<path class="st5" d="M98.2,73.2h-1.4c-1.5-2.4-1.2-4.9-0.4-7.4c0.1-0.2,0.3-0.3,0.4-0.5H98c0.3,1.3,0.1,2.7,0.2,4
	C98.2,70.6,98.2,71.9,98.2,73.2L98.2,73.2z"/>
<path class="st5" d="M98.2,178.6c-0.7-0.2-1.4-0.4-2.2-0.7v-4.4c0.7,0.5,1.4,1.1,2.2,1.6V178.6L98.2,178.6z"/>
<path class="st7" d="M153.3,129.1c0.3-0.2,0.6-0.5,0.9-0.7c0.2-0.2,0.4-0.5,0.6-0.7h4.9v1.4C157.5,129.1,155.4,129.1,153.3,129.1z"
	/>
<path class="st1" d="M92.4,219.6v-2.9c0.4,0.1,0.9,0.1,1.3,0.2c0.5,0.1,1,0.3,1.6,0.5c0.6,0.7,0.6,1.4,0,2.1
	C95.3,219.6,92.4,219.6,92.4,219.6z"/>
<path class="st1" d="M134.7,167.9c-2.3-1.2-3.1-3.2-2.9-5.7C134.8,163.9,135.3,164.9,134.7,167.9z"/>
<path class="st5" d="M95.3,219.6v-2.1h2.9v2.1H95.3z"/>
<path class="st7" d="M91.7,137.8c-0.5-0.5-1-1-1.4-1.4h7.9c-0.3,0.2-0.6,0.7-0.9,0.7c-1.5,0.1-3.1,0-4.6,0.1
	C92.3,137.1,92,137.5,91.7,137.8L91.7,137.8z"/>
<path class="st2" d="M91.7,171.5c-0.5-0.5-1-1-1.4-1.4h7.9c-1,0.2-2,0.5-3.1,0.7C94,171.1,92.6,170.1,91.7,171.5L91.7,171.5z"/>
<path class="st8" d="M90.3,103.3v-0.7h7.9c-1.2,0.2-2.4,0.6-3.7,0.7C93.1,103.4,91.7,103.3,90.3,103.3z"/>
<path class="st2" d="M69.5,178.6v1.4c0.5,0.7,0.5,1.4,0,2.1c-0.1,0.2-0.2,0.4-0.4,1c-0.4-1.2-0.7-2.2-1.1-3.1
	c1.1-0.1,0.6-0.9,0.7-1.4L69.5,178.6L69.5,178.6z"/>
<path class="st2" d="M149,171.5h1.4c-0.3,0.7-0.6,1.4-1,2.2c-0.4-0.1-0.8-0.1-1.4-0.3C148.5,172.6,148.7,172.1,149,171.5L149,171.5z
	"/>
<path class="st2" d="M106,178.6c-0.7,1-1.4,1-2.2,0C104.6,177.7,105.3,177.7,106,178.6z"/>
<path class="st2" d="M113.2,214.5c0.2-0.5,0.5-1,0.7-1.4h1.2c0.1,0.4,0.2,0.8,0.3,1.4H113.2z"/>
<path class="st2" d="M170.5,155.7v-1.4h1.1C171.9,155.1,171.5,155.6,170.5,155.7z"/>
<path class="st2" d="M113.2,178.6c-0.3,0.2-0.6,0.5-0.9,0.7c-0.2-0.2-0.4-0.5-0.5-0.7c0.3-0.2,0.6-0.5,0.9-0.7
	C112.8,178.2,113,178.4,113.2,178.6z"/>
<path class="st7" d="M148.4,125.4v-2C148.8,124.2,148.8,124.9,148.4,125.4z"/>
<path class="st8" d="M40.1,167.9H38v-0.7h2.2c0.2,0.2,0.2,0.3,0.2,0.5C40.2,167.8,40.2,167.9,40.1,167.9z"/>
<path class="st7" d="M45.1,45.2v-2c0.2,0,0.3,0,0.5,0c0.1,0.7,0.1,1.4,0.2,2.1C45.9,45.2,45.1,45.2,45.1,45.2z"/>
<path class="st2" d="M141.1,171.5c-0.2,1-0.7,0.8-1.5,0.4c0.3-0.1,0.6-0.3,0.8-0.4H141.1z"/>
<path class="st9" d="M96.7,159.3h1.4v0.7h-1.4V159.3z"/>
<path class="st9" d="M96.7,125.6h1.4v0.7h-1.4V125.6z"/>
<path class="st10" d="M68.8,105.5c-0.2-0.3-0.5-0.6-0.7-0.9c0.2-0.2,0.5-0.4,0.7-0.5C68.8,104.5,68.8,105,68.8,105.5z"/>
<path class="st2" d="M87.4,102.6v1.4c-1.1-0.1-0.6-0.9-0.7-1.4H87.4z"/>
<path class="st7" d="M22.9,82.5c0.2,0.3,0.5,0.6,0.7,0.9c-0.2,0.2-0.5,0.4-0.7,0.5V82.5z"/>
<path class="st7" d="M46.6,46.6c-0.1,0.5,0.4,1.4-0.7,1.4v-1.4H46.6z"/>
<path class="st1" d="M61.6,173.6c-0.5-0.1-1.4,0.4-1.4-0.7C60.7,173,61.6,172.6,61.6,173.6z"/>
<path class="st2" d="M96,65.3v-0.7c0.2,0.2,0.5,0.5,0.7,0.7C96.5,65.5,96.2,65.5,96,65.3z"/>
<path class="st2" d="M89.6,65.3h-0.7l0.7-0.7V65.3z"/>
<path class="st2" d="M87.4,124.8v0.7c-0.2-0.2-0.4-0.3-0.6-0.5C87,125,87.2,124.9,87.4,124.8z"/>
<path class="st2" d="M87.4,72.5v0.7h-0.7C86.9,72.9,87.2,72.7,87.4,72.5z"/>
<path class="st2" d="M87.4,158.6v0.7c-0.2-0.2-0.4-0.3-0.6-0.5C87,158.7,87.2,158.6,87.4,158.6z"/>
<path class="st5" d="M83.8,261.2v3.3c-0.7,0.5-1.4,0.9-2.2,1.4c1.1,1.7,2.1,3.2,3.4,5.1h-3.8c-0.8-1.2-1.8-2.6-2.9-4.3v3.6
	c-1,0-1.9,0.1-2.9,0.1v-12.1c1.8-0.2,3.8,0,5.9-0.1C81.9,259.1,82.7,260,83.8,261.2L83.8,261.2z"/>
<path class="st5" d="M40.9,270.4c-0.1-0.7-0.1-1.2-0.2-1.9H36c-0.1,0.5-0.2,1.2-0.3,1.9h-3.5c1.3-4,2.6-7.9,3.9-11.9h4.4
	c1.3,3.9,2.6,7.8,4,12L40.9,270.4L40.9,270.4z"/>
<path class="st5" d="M164.9,258.3h4.1c1.4,3.8,2.9,7.8,4.4,12h-3.5c-0.1-0.6-0.1-1.1-0.2-1.8h-4.8c-0.1,0.6-0.1,1.2-0.2,1.9h-3.6
	C162.4,266.2,163.6,262.3,164.9,258.3L164.9,258.3z"/>
<path class="st5" d="M106.1,268.5c-0.1,0.7-0.1,1.2-0.2,1.9h-3.6c1.7-4,2.4-8,4.1-11.9h4c1.4,3.7,3.1,7.5,3.7,11.7
	c-0.4,0.2-0.6,0.3-0.8,0.4c-0.7,0-1.4,0-2.1,0c-0.1-0.8-0.2-1.3-0.2-2L106.1,268.5L106.1,268.5z"/>
<path class="st5" d="M68.1,266.2v1.4h4.1v2.9h-7.6v-12c1.1,0,2.4-0.1,3.6-0.1c1.3,0,2.6,0,4,0v2.8h-4.1v2.2h3.4v2.9H68.1L68.1,266.2
	z"/>
<path class="st5" d="M131.1,258.4h3.6c0.7,2.1,1.6,4.5,2.6,7.2c0.9-2.5,1.8-4.8,2.6-7.2h3.6c-1.8,4.2-3.5,8.2-5.2,12h-2.6
	C134.2,266.5,132.6,262.6,131.1,258.4L131.1,258.4z"/>
<path class="st5" d="M56.9,265.8c0.9-2.8,1.7-5.1,2.5-7.4h4c-2.4,3.9-3.6,8-5.5,12h-2.5c-2-3.6-2.9-7.8-4.5-12h3.5
	C55,260.6,55.9,263,56.9,265.8L56.9,265.8z"/>
<path class="st5" d="M19.4,264c0.5-1.8,1.1-3.6,1.6-5.6h3.6c-1.5,4.2-3.1,8.2-4.8,12.1h-2.3c-1.9-3.8-3.7-7.7-4.8-12.1h3.5
	c0.5,1.8,1.1,3.7,1.7,5.6C18.4,264.5,18.9,264.5,19.4,264z"/>
<path class="st5" d="M121.5,266.5c-2-0.9-3.7-1.7-5.6-2.6c0.3-1.7,0.6-3.2,0.9-5c2.2-0.3,4.2-0.5,6.4-0.8v4
	c-1.1-0.9-1.8-2.2-3.5-1.2c0.3,0.5,0.6,1.1,0.9,1.7h2.3c1.8,1.6,2.1,3.5,1.9,5.3c-0.9,0.9-1.7,1.8-2.5,2.6h-4.4
	c0.1-0.1,0.3-0.3,0.4-0.4c-0.8-0.5-1.6-1-2.7-1.6c1-0.8,1.6-1.2,2.3-1.8c0.2,0.7,0.4,1.1,0.5,1.5
	C118.9,268.7,119.8,268.3,121.5,266.5L121.5,266.5z"/>
<path class="st5" d="M98.8,262.1v8.3h-3.4V262h-2.8v-3.6h8.3c0,0.7,0.1,1.6,0.1,2.3C100.2,261.2,99.5,261.6,98.8,262.1z"/>
<path class="st5" d="M156.6,270.4h-2.5v-8.5c-1-0.4-1.9-0.7-2.9-1.1v-2.4h8.4v3.4c-0.6,0-1.1,0.1-1.8,0.2
	C157.4,264.6,157.1,267.4,156.6,270.4L156.6,270.4z"/>
<path class="st5" d="M30,258.4v12h-3.3v-12H30z"/>
<path class="st5" d="M148.9,270.4h-3.4v-12h3.4V270.4z"/>
<path class="st5" d="M90.3,269.2c-1.1,1.5-2.3,1.3-3.5,1.1v-11.9c0.8,0,1.6-0.1,2.5-0.1C91.2,261.9,89.8,265.7,90.3,269.2z"/>
<path class="st2" d="M19.4,264c0,0.8,0.2,1.8-1.4,1.2V264H19.4z"/>
<path class="st2" d="M160.5,239.6c1.1,0.1,0.6,0.9,0.7,1.4C160.1,241,160.6,240.2,160.5,239.6z"/>
<path class="st2" d="M161.2,245.4c-0.2,0.2-0.5,0.5-0.7,0.7C160.7,245.9,161,245.6,161.2,245.4z"/>
<path class="st2" d="M25.1,246.1c-0.2-0.2-0.5-0.5-0.7-0.7C24.6,245.6,24.8,245.8,25.1,246.1z"/>
<path class="st2" d="M24.4,240.4c0.2-0.2,0.5-0.5,0.7-0.7C24.8,239.9,24.6,240.1,24.4,240.4z"/>
<path class="st2" d="M25.1,236.8h-0.7c0.2-0.2,0.3-0.4,0.5-0.6C24.9,236.4,25,236.6,25.1,236.8z"/>
<path class="st11" d="M48,110.5c2.5-1.8,4.5-4,6-7.1h-6c1.5-3.2,4.7-5.5,4.1-9.6c-1.5,0.5-2.7,1.5-4,0.7c1.4-2.9,3.3-5.6,2.6-9.2
	c-1.6,0.6-3,1.1-4.8,1.7c-0.2-3,1.4-5.8,0.3-8.8c-1.1,0.5-2.3,1.1-3.5,1.6c-1.4-1.6,0.4-2.9,0.2-4.2c-0.4-1.9,2.2-2.1,1.5-4.3
	c2.2,1.3,3.2,2.8,4.5,4c1.4-1,2.8-1.9,4.6-3.2c0.4,3.3,0.3,6.1-0.7,9.3c2.6-0.7,4.7-2.2,7.8-1.3c-1.1,2.7-2.2,5.2-3.4,8.2h8.9
	c-2.5,3.3-4.4,5.9-6.2,8.3c2.1,0.6,4.5,1.3,7.8,2.2c-3.1,2.6-5.6,4.6-7.7,6.4c1.6,1.2,3.5,2.7,5.4,4.1c-1.5,2.7-3.4,3.8-7.6,4.5
	c1.7,1.7,3.7,2.8,4.8,4.8c-1.8,0.5-9.6,0.9-12.1,0.5c-1.6-0.3-3.1-1.1-5.1-1.8c2.9-1.4,5.2-2.8,6.9-5.1c-0.3-0.3-0.7-0.7-1-1h-1.8
	C49.1,110.7,48.3,111,48,110.5L48,110.5z"/>
<path class="st12" d="M48,110.5c0.5,0.1,1.4-0.4,1.4,0.7h-2.8c0-0.2,0-0.3,0-0.5C47.1,110.7,47.5,110.6,48,110.5z"/>
<path class="st0" d="M153.4,64.7c-0.1,4.6-3.1,7.9-4,12h-14.7c-1.6-3.7-3.9-7.4-4.4-12H153.4L153.4,64.7z"/>
<path class="st13" d="M88.1,194.4c5.8,0.2,11.7,0.9,17.6,0.6c8.3-0.3,16.6-1.5,24.1-5.6c5.7-3.1,9.8-7.6,12.1-13.6h1.2
	c0.9,3.2-0.8,5.9-2.3,8.5c-2.1,3.8-4.9,7.2-8.3,9.8c-4,3-8,6.1-12.9,7.7c-2.8,0.9-5.5,2.2-8.4,3c-1.7,0.5-3.4,1.2-5.2,1.3
	c-1.6,0.1-3.1,0.4-4.7,0.7c-1.5,0.2-3-0.5-4.4,0.7c-0.2,0.2-0.7,0-1.1,0c-5.7,0.4-11.3,0-16.8-0.9c-6-0.9-11.9-2.4-17.5-5.2
	c-2.4-1.2-5-2.3-7.4-3.6c-2.9-1.5-6-3.3-7.6-6.6c-0.5-1.1-1.5-2.1-2.3-2.9c-2.2-2.4-3.1-5.5-4.8-8.1c-0.7-1.2-0.7-2.4-0.7-3.6
	c3.6-0.1,6.2,1.9,8.5,3.8c-0.3,1.7-0.5,3.2-0.8,5c1.7,0.3,3.2,0.5,4.8,0.8c0.5-0.7,0.9-1.4,1.4-2.1l0.5,0.3v-2.7
	c1,2.9,3.5,3.8,6.5,4.9h5.2c0.5-0.4,1.1-0.9,1.8-1.6c6.7,7.6,15.7,6.3,25,6.8c-4.4-6.4-10.7-6.8-16.8-8.3c-0.3-0.6-0.7-1.5-1-2.4
	c-0.3-0.9-0.6-1.8-1.1-3.5c2,1.6,3.4,2.5,4.1,3.9c5.6,0.4,10.6,1.8,14.8,5.4c1,0.9,2,1.6,2.8,2.7c0.9,1.1,0.7,2.1,0.8,3.2
	c-2.5,0.4-4.8,0.7-7.2,1c-1.1,0.9-2.2-0.6-3,0C86,193.7,87.1,193.9,88.1,194.4L88.1,194.4z"/>
<path class="st5" d="M134.7,167.9c0.1-1.7-0.2-3.2-2.1-3.9c-0.4-0.6,0.5-1.7-0.8-1.9c0.1-2.1-1.2-4-0.7-6.1c0.1-0.3,0.1-0.6,0.2-1.1
	c0.4,0.3,0.7,0.5,0.8,0.7c1.8,4.5,3.6,8.9,5.4,13.4c0.1,0.3-0.1,0.6-0.2,1.3c-0.6-1-1.1-1.7-1.6-2.5L134.7,167.9L134.7,167.9z"/>
<path class="st5" d="M139.4,168.6c-2.6-3.7-2.9-7.8-1.7-12.2c0.8,4,1.6,7.9,2.4,11.9C139.9,168.4,139.7,168.5,139.4,168.6z"/>
<path class="st14" d="M41.6,173.6h2.2c-0.3,1.4-1.4,0.4-2.2,0.7c-0.2-0.2-0.3-0.3-0.2-0.5C41.4,173.7,41.5,173.6,41.6,173.6z"/>
<path class="st2" d="M41.6,173.6v0.7c-0.5-0.1-1.4,0.4-1.4-0.7H41.6z"/>
<path class="st0" d="M47,183c1.7-0.8,2.6-1.2,3.8-1.8v3.6C49.6,184.2,48.7,183.8,47,183z"/>
<path class="st15" d="M88.1,194.4H86c-0.7-0.4-1.1-0.7-1.6-1c0.1-0.2,0.2-0.4,0.3-0.5c1.1,0.3,2.3,0.5,3.4,0.8L88.1,194.4
	L88.1,194.4z"/>
<path class="st1" d="M69.5,182.2v-2.1C70.5,180.8,70.5,181.5,69.5,182.2z"/>
<path class="st1" d="M71.9,177.2v-0.7h0.2v0.7H71.9z"/>
<path class="st1" d="M46.6,172.9c0.2-0.2,0.5-0.5,0.7-0.7C47,172.4,46.8,172.7,46.6,172.9z"/>
<path class="st1" d="M96,65.3h0.7v7.9h-3.6v-7.9H96L96,65.3z"/>
<path class="st0" d="M51.7,33.8h1.2v2h-1.2V33.8z"/>
<path class="st0" d="M40.1,167.9v-0.7c0.1-1.8,1.6-2.8,2.3-4.2h3.8c1.2,1.5,1,3.3,1,4.9H40.1L40.1,167.9z"/>
<path class="st0" d="M41.6,170.8h2.9C43.5,171.7,42.5,171.7,41.6,170.8z"/>
<path class="st0" d="M49.4,169.3c0.1,1.1-0.3,1.9-1.4,2.1C47.9,170.4,48.3,169.6,49.4,169.3z"/>
<path class="st2" d="M40.8,170c0.2,0.2,0.5,0.5,0.7,0.7C41.3,170.5,41.1,170.3,40.8,170z"/>
<path class="st0" d="M81.1,262c-0.4,1.8-1.3,2.2-2.9,1.9c0-0.5-0.1-1.2-0.1-1.9C78.1,262,81.1,262,81.1,262z"/>
<path class="st0" d="M39.4,265.5h-2c-0.4-1.4-0.5-2.6,0.9-3.6c0.2,1,0.4,1.9,0.7,2.9C39.1,264.9,39.2,265.1,39.4,265.5L39.4,265.5z"
	/>
<path class="st0" d="M167.3,261.6c0.5,1.5,0.8,2.5,1.2,3.8c-0.7,0.1-1.3,0.1-1.9,0.1C165.6,264,166.9,263.1,167.3,261.6L167.3,261.6
	z"/>
<path class="st0" d="M108.9,263.3v2.1h-1.4v-2.1C108,262.9,108.4,262.9,108.9,263.3z"/>
<path class="st2" d="M108.9,263.3h-1.4c0.3-0.2,0.6-0.5,0.9-0.7C108.6,262.8,108.7,263.1,108.9,263.3z"/>
</svg>
