<?xml version="1.0" encoding="utf-8"?>
<!-- Generator: Adobe Illustrator 27.2.0, SVG Export Plug-In . SVG Version: 6.00 Build 0)  -->
<svg version="1.1" id="Layer_1" xmlns="http://www.w3.org/2000/svg" xmlns:xlink="http://www.w3.org/1999/xlink" x="0px" y="0px"
	 viewBox="0 0 735 852" style="enable-background:new 0 0 735 852;" xml:space="preserve">
<style type="text/css">
	.st0{fill:#FFFFFF;}
	.st1{fill:#E6B35A;}
	.st2{font-family:'ArialMT';}
	.st3{font-size:24.8697px;}
	.st4{opacity:0.9;fill:#FFFFFF;enable-background:new    ;}
</style>
<path class="st0" d="M705.6,196.2L427.8,35.8L367.5,1l-60.3,34.8L29.4,196.2L0.1,213.1v424.2l29.3,16.9l281.3,162.4l56.9,32.8
	l56.9-32.8l281.3-162.4l29.3-16.9V213.1L705.6,196.2z M705.6,621.5L367.5,816.7L29.4,621.5V231L367.5,35.8l0,0L705.6,231V621.5z"/>
<path class="st1" d="M367,633.9c0.3-0.3,0.6-0.6,0.9-0.9h-0.3L367,633.9z"/>
<text transform="matrix(0.8645 -0.5026 0.5026 0.8645 369.2801 809.1004)" class="st0 st2 st3">ww</text>
<text transform="matrix(0.8645 -0.5026 0.5026 0.8645 401.4442 790.4004)" class="st0 st2 st3">w</text>
<text transform="matrix(0.8645 -0.5026 0.5026 0.8645 416.4257 781.6902)" class="st0 st2 st3">.rstudi</text>
<text transform="matrix(0.8645 -0.5026 0.5026 0.8645 472.5406 749.0652)" class="st0 st2 st3">o</text>
<text transform="matrix(0.8645 -0.5026 0.5026 0.8645 483.8324 742.5002)" class="st0 st2 st3">.</text>
<text transform="matrix(0.8645 -0.5026 0.5026 0.8645 488.2786 739.9153)" class="st0 st2 st3">c</text>
<text transform="matrix(0.8645 -0.5026 0.5026 0.8645 497.7814 734.3904)" class="st0 st2 st3">om</text>
<path class="st4" d="M123.2,458L123.2,458C119.9,457.9,122.1,458,123.2,458z M123.1,458h-0.7h1.7H124H123.1
	C123.8,458,124.1,458.1,123.1,458z M124,458c34.9,0.8,71.4-7.3,82-48.8c6.9-26.8-10.3-46.3-25.5-65.9c-0.1-0.1-0.2-0.2-0.2-0.4
	c-0.6-2.5-17.1-17.7-21.7-23.4c0-0.1-0.1-0.1-0.2-0.2c-2.2-1.6-4.5-9.7-5.6-14.2c-0.5-1.9-0.5-3.8-0.1-5.7
	c4-20.4,6.2-35.3,33.3-30.9c19.4,3.2,9.4,31.8,19.9,34.6h0.2c6.3,0.6,18.6-14.5,20.4-19.6c7-19.8-33.4-31.9-45.7-31.1
	c-24.7,1.5-40.9,14.9-50.8,37c-18.2,40.7,15.8,67.8,36.4,95.7c15.6,21.1,14.9,39.9-4.2,58c-21,19.9-45.4-7.5-48.2-26.8
	c-2.5-17.7-2.3-30-17.1-7.5C83.2,429.7,97.3,456.9,124,458z M673.5,361.4c0,0,0,0.1,0,0.1c-0.4,4.3-1.3,8.5-2.8,12.6
	c-2.6,6.8-5.9,13.4-9.9,19.5c-4.9,7.5-7.5,10.5-12.6,17.1c-9.6,12.5-17,21.8-28.2,33.7c-15.6,16.5-33,35.4-52,48.9
	c-27.2,19.4-61.3,24.7-93.7,27.7c-94.8,8.6-234.3,21.4-263.7,124c-0.2,0.6-0.7,0.9-1.3,0.7c-0.3-0.1-0.5-0.2-0.6-0.5
	c-28.8-49.2-90.7-85.3-148.1-83.6c-0.6,0.1-1.1-0.2-1.2-0.8s0.2-1.1,0.8-1.2c147.8-73.4,298.8-38.2,458.4-66.7
	c39.9-7.1,73.4-33.3,97.5-64.8c9.2-11.9,21-22,29.1-34.7c1.3-2.1,8-18.8-2.4-11.7c-16.1,10.9-29.7,24.4-47.2,32.9
	c-0.8,0.4-1.7,0.8-2.6,1.1c-0.3,0.1-0.5,0.4-0.6,0.7c-2.5,8.2-6,16.1-10.5,23.4c-5.3,8.3-12.4,15.4-20.8,20.7
	c-7.8,5.1-16.9,8.2-26.2,8.9c-1.3,0.1-2.5,0.1-3.8,0.1c-7.4,0-12.2-0.6-17.9-3.5c-7.3-3.8-9.6-10-10.1-17.5
	c-0.3-4.5,2.5-9.4,4.8-13.1s6-7.8,8.6-8.9l0.2-0.1c13-9.6,35.1-10.3,50.2-14.4c0.4-0.1,0.7-0.4,0.7-0.7l7.5-27.4
	c0.2-0.6-0.2-1.1-0.7-1.3c-0.4-0.1-0.9,0.1-1.1,0.4c-3.8,5.6-8,10.9-12.5,15.9c-5.9,6.2-10.5,10-14,11.5c-4,1.5-8.2,2.4-12.4,2.6
	c-5,0.3-9.3-1.7-12.6-5.9s-5.1-10.4-5.5-18.6c-0.1-1.3-0.1-2.8,0-4.4c0-0.6-0.4-1.1-1-1.1c-0.4,0-0.8,0.2-1,0.6
	c-1.7,3.1-3.3,6-4.8,8.6c-4.7,8.2-10.5,15.7-17.2,22.4c-6.6,6.6-13,10.1-18.9,10.5c-11,0.7-17.1-5.6-17.9-18.8
	c-0.8-12.6,4.2-38.5,15-77.1c0.6-1.7,0.8-3.4,0.7-5.2c-0.2-3.5-2.2-4.9-6.3-4.6c-4.7,0.4-9.2,2.3-12.8,5.4
	c-4.6,3.9-8.4,8.7-11.2,14.1c-3.3,6-6.2,12.2-8.9,18.5c-2.8,6.9-5.1,14.1-6.9,21.4c-2,8.1-3.7,14.9-4.8,20.2
	c-1.2,5.5-2.3,11.3-3.4,17.3c-0.8,4.2-1.7,9.4-1.9,10.2l-0.2,0.8l-27.5,1.8l-0.1-1c-0.1-2.4,1.8-10.9,5.8-25.8
	c-0.8,1.4-1.6,2.8-2.4,4.2c-4.7,8.2-10.5,15.7-17.2,22.4c-6.6,6.6-13,10.1-18.9,10.5c-0.4,0-0.8,0-1.2,0c-9.7,0-15.2-7.6-16.1-22.6
	c-0.2-3-0.3-6-0.2-9.1c0.1-0.6-0.2-1.1-0.7-1.3c-0.6-0.1-1.1,0.2-1.3,0.7c-15,27.7-28.6,41.6-41.2,42.4c-11.1,0.7-17.1-5.9-18-19.7
	c-1-15.3,3.2-37.7,12.5-66.5c2-7.1,2.9-12,2.7-14.6c-0.2-4-2.1-4.5-3.6-4.5h-0.4c-1.3,0.1-4.1,1-10,4.6c-5.2,3.4-9.7,7.6-13.4,12.5
	c-4.3,5.6-7.7,11.9-10.2,18.5c-2.6,7-4.7,13.1-6.2,18.2s-3,11.4-4.5,18.6s-2.8,13.4-4,18s-2.4,9.9-3.6,16l-0.2,0.8l-26.4,1.7
	c-0.6,0-1.1-0.4-1.1-1c0-0.1,0-0.2,0-0.4l0,0c3.9-13.5,9.4-35.4,16.4-65s13.3-53.3,18.5-70.4c4.4-14.8,9.8-29.4,16-43.5
	c4.8-11,11.3-21.3,19.2-30.4c7.5-8.4,15.9-12.9,24.8-13.5c9.4-0.6,14.4,4,15.1,13.8c0.4,6.5-1.5,15.2-5.6,26.1
	c-7.5,19.3-20.1,41.8-37.3,66.8c-0.4,0.4-0.4,1.1,0,1.5s1.1,0.4,1.5,0c3-2.3,6.2-4.4,9.6-6.1c5-2.6,10.5-4.2,16.2-4.6
	c10.7-0.7,16.4,4.2,17.1,14.5c0.3,3.8-0.1,7.6-1.2,11.2c-1,3.3-2.1,7.2-3.4,11.5c-1.2,4.3-2.2,7.9-3,10.6c-0.8,2.8-1.8,6.5-3.1,11.2
	s-2.3,8.8-2.9,12c-1.8,8.1-2.5,14.6-2.2,19.3c0.4,6,2.8,6,3.6,6h0.3c10.1-0.6,22-18.2,35.5-52.2c0.1-0.2,0.1-0.3,0.2-0.5
	c3.1-11.2,7-22.2,11.7-32.8c5.6-12.3,12.4-18.8,20.4-19.3l15.9-0.8c0.6,0,1.1,0.4,1.1,1c0,0.3-0.1,0.6-0.3,0.8h0
	c-2.5,2.4-5.8,8.8-9.8,19.1c-4.2,11.1-7.1,18.7-9,23.8c-1.9,5.3-4.1,12.5-6.4,21.5s-3.3,16.2-2.9,21.6c0.5,7.1,3.2,7.1,4.1,7.1h0.3
	c1.4-0.1,4-1.1,8.7-5.4c3.6-3.3,6.7-7,9.3-11.1c2.4-3.8,5-8.8,7.9-14.8s5.4-11.2,7.5-15.6c2.2-4.7,3.2-6.3,3.8-6.9l1.3-2.4
	c4.9-19.8,7.2-33.7,6.7-41.4c0-1.3-0.3-2.6-0.9-3.8l0,0c-0.3-0.5-0.2-1.1,0.3-1.4c0.1-0.1,0.3-0.1,0.5-0.2l11.1-0.7
	c6.5-0.4,10.6,0,12.7,1.4c2.1,1.4,3.4,3.7,3.5,6.1c0,2.4-0.2,4.9-0.7,7.3c-0.1,0.6,0.3,1.1,0.9,1.2c0.3,0.1,0.7-0.1,0.9-0.3
	c12.5-13,25.5-20,38.9-20.8c10.7-0.7,16.5,4.4,17.1,15.1c0.2,3.4,0,6.8-0.7,10.2c-0.7,3.4-2.4,10-5.4,20.2
	c-6.3,21.9-9.3,36.6-8.8,43.8c0.3,5.1,2.3,5.7,3.8,5.7h0.3c1.4-0.1,4-1.1,8.6-5.5c3.6-3.4,6.8-7.1,9.4-11.3c2.9-4.7,5.6-9.6,8-14.6
	c2.9-5.8,5.3-11,7.4-15.4c0.7-1.6,1.3-2.8,1.8-3.8c0-0.1,0.1-0.1,0.1-0.2c2.9-12.2,6.3-22.3,10.2-30.1c4.5-9.2,9.6-15.3,15-18.3
	s12.8-4.7,22.3-5.3l0,0c1.2-0.1,2.2,0.7,2.3,1.9c0,0.1,0,0.2,0,0.2c0.1,1.1-0.5,2.3-1.7,3.8c-6.7,7.3-13.2,20.2-19.5,38.4
	s-9,33.5-8.3,45.7c0.4,5.6,1.8,8.5,4.2,8.5h0.2c5.9-0.4,13.4-7.7,22.1-21.8c8.4-13.4,15.1-27.8,20-42.9c0.6-2,1.4-4.8,2.5-8.6
	s1.9-6.3,2.3-7.7s1.2-3.4,2.2-5.9c0.7-2,1.7-3.8,2.9-5.5c0.8-0.9,2-2.1,3.4-3.6c1.4-1.5,3-2.6,4.9-3.2c4.7-1.4,9.5-2.3,14.4-2.7
	l11.1-0.7c0.6,0,1.1,0.4,1.1,1c0,0.3-0.1,0.7-0.4,0.9l-0.2,0.2c-5,3.9-9.9,13.2-14.5,27.7c-3.8,12.3-7,23.7-9.5,33.8
	s-4.1,16.3-4.7,18.5s-1.9,7.6-3.9,15.8c-1.5,6.2-2.8,11.3-3.9,15.4c-0.2,0.5,0,1.1,0.5,1.3c0.4,0.2,0.8,0.1,1.1-0.2
	c10.9-6.5,20.9-14.3,30-23.2c5.1-5.1,43.8-48.1,45.6-20.8L673.5,361.4z M303.2,237.8c-3.9,0.2-10.8,6.2-21.2,33
	c-7.2,18.5-14.2,39.6-20.9,62.8c-0.1,0.6,0.2,1.1,0.8,1.3c0.4,0.1,0.9-0.1,1.1-0.4c18-27.5,30.5-50.4,37.1-68.3
	c4.1-12.2,6-20.3,5.8-23.9c-0.3-4.4-2-4.4-2.5-4.4L303.2,237.8z M562.9,426.3c0.2-0.5-0.1-1.1-0.6-1.3c-0.2-0.1-0.4-0.1-0.6,0
	c-5.4,1.1-10.8,2-16.1,3.3c-7.5,1.8-18.9,3.6-24.7,9.9c-0.1,0.1-0.1,0.2-0.2,0.3c-1,2.2-1.2,5.7-1,10.1c0.2,3.1,3.2,6,5.8,8.1
	c2.4,1.9,5.5,2.8,8.5,2.5C545.8,458.3,555.5,447.3,562.9,426.3z M384.1,297.6L384.1,297.6c6.4-0.3,14.4-2.7,16.3-12.2
	c0.9-4.3-1.7-9.2-3.3-10.6s-3.8-2-6.7-1.8s-6.4,2-9.7,5.1c-4.4,4.1-4.2,10-2.8,13.9C379.2,295.3,381.5,297.5,384.1,297.6z"/>
</svg>
