<?xml version="1.0" encoding="UTF-8"?>
<svg xmlns="http://www.w3.org/2000/svg" xmlns:xlink="http://www.w3.org/1999/xlink" width="16px" height="24px" viewBox="0 0 16 23" version="1.1">
<g id="surface1">
<path style="fill-rule:nonzero;fill:rgb(70%,70%,70%);stroke-opacity:1;stroke-miterlimit:4;" d="M -0.00212723 0.000037218 L 31.090793 0.000037218 C 31.090793 0.000037218 31.124353 -14.728398 31.090793 -25.422822 C 31.090793 -33.30202 21.358525 -41.98802 15.535943 -42.297009 C 9.07573 -41.773445 -0.00212723 -32.744125 -0.00212723 -25.517235 Z M -0.00212723 0.000037218 " transform="matrix(0.46559,0,0,-0.455115,0.758803,0.691423)"/>
<path style=" stroke:none;fill-rule:nonzero;fill:rgb(80%,80%,80%);fill-opacity:1;" d="M 7.890625 18.03125 L 8.347656 18.03125 L 8.347656 5.570312 L 7.890625 5.570312 Z M 7.890625 18.03125 "/>
<path style=" stroke:none;fill-rule:nonzero;fill:rgb(80%,80%,80%);fill-opacity:1;" d="M 11.15625 5.492188 C 11.570312 5.488281 12.234375 5.492188 12.664062 5.492188 C 12.796875 5.492188 13.019531 5.457031 12.894531 5.742188 C 12.785156 6 12.628906 6.355469 12.5625 6.507812 C 12.335938 6.507812 11.414062 6.507812 11.410156 6.503906 C 11.335938 6.339844 11.230469 6.101562 11.097656 5.796875 C 11.027344 5.636719 10.992188 5.492188 11.15625 5.492188 M 10.949219 9.859375 L 13.222656 9.859375 C 13.894531 9.859375 13.953125 9.949219 14 10.089844 C 13.972656 9.871094 13.828125 8.753906 13.726562 7.945312 C 13.703125 7.734375 13.625 7.152344 13.324219 6.804688 C 13.230469 6.695312 13.183594 6.636719 12.980469 6.554688 C 12.996094 6.507812 13.183594 6.058594 13.320312 5.695312 C 13.390625 5.507812 13.316406 5.324219 13.167969 5.238281 C 13.042969 5.164062 12.878906 5.160156 12.765625 5.160156 C 11.984375 5.160156 11.382812 5.160156 11.144531 5.160156 C 10.726562 5.160156 10.535156 5.417969 10.660156 5.730469 C 10.757812 5.96875 10.917969 6.371094 10.992188 6.558594 C 10.480469 6.722656 10.3125 7.40625 10.238281 8 C 10.113281 8.996094 9.945312 10.328125 9.933594 10.40625 C 9.914062 10.535156 9.894531 10.636719 10.105469 10.648438 C 10.511719 10.671875 10.980469 10.675781 11.777344 10.65625 C 11.851562 10.699219 11.953125 10.722656 12.082031 10.71875 C 12.210938 10.71875 12.304688 10.683594 12.371094 10.636719 C 12.695312 10.625 13.0625 10.613281 13.484375 10.59375 C 13.117188 10.585938 12.769531 10.578125 12.449219 10.566406 C 12.5625 10.425781 12.550781 10.234375 12.542969 10.199219 C 12.492188 10.71875 11.800781 10.667969 11.972656 10.117188 C 11.898438 10.117188 11.707031 10.117188 11.585938 10.214844 C 11.550781 10.296875 11.5625 10.429688 11.640625 10.542969 C 11.191406 10.523438 10.824219 10.507812 10.554688 10.492188 C 10.417969 10.484375 10.351562 10.386719 10.421875 10.296875 C 10.710938 9.929688 10.730469 9.859375 10.949219 9.859375 "/>
<path style=" stroke:none;fill-rule:nonzero;fill:rgb(100%,100%,100%);fill-opacity:1;" d="M 8.011719 17.980469 C 8.011719 18.125 7.910156 18.242188 7.789062 18.242188 C 7.664062 18.242188 7.5625 18.125 7.5625 17.980469 L 7.5625 16.742188 C 7.5625 16.597656 7.664062 16.476562 7.789062 16.476562 C 7.910156 16.476562 8.011719 16.597656 8.011719 16.742188 L 8.011719 17.980469 "/>
<path style=" stroke:none;fill-rule:nonzero;fill:rgb(66%,66%,66%);fill-opacity:1;" d="M 4.890625 3.292969 C 4.964844 3.261719 5.066406 3.269531 5.160156 3.269531 C 5.054688 3.183594 4.960938 3.152344 4.902344 3.136719 C 4.769531 2.640625 4.039062 2.777344 3.964844 3.214844 C 3.9375 3.375 3.363281 3.445312 2.703125 4.304688 C 2.398438 4.699219 1.980469 5.046875 1.851562 5.125 C 1.726562 5.203125 2.035156 5.179688 2.179688 5.03125 C 2.316406 5.164062 2.582031 4.765625 2.980469 4.695312 C 3.085938 4.679688 4.414062 4.445312 4.0625 3.703125 C 4.53125 4.289062 3.75 4.710938 3.261719 4.757812 C 3.304688 4.78125 3.558594 4.800781 3.585938 4.8125 C 3.660156 4.835938 3.566406 4.921875 3.625 4.957031 C 3.769531 5.035156 4.050781 5.296875 4.050781 5.296875 C 4.050781 5.296875 4.214844 5.242188 4.140625 5.171875 C 3.921875 5.03125 3.863281 4.988281 3.808594 4.898438 C 3.804688 4.894531 3.734375 4.765625 3.875 4.726562 C 4.085938 4.710938 4.765625 4.472656 4.648438 3.640625 C 4.628906 3.507812 4.726562 3.367188 4.890625 3.292969 "/>
<path style=" stroke:none;fill-rule:nonzero;fill:rgb(17%,17%,17%);fill-opacity:1;" d="M 4.792969 3.152344 C 4.792969 3.199219 4.757812 3.230469 4.71875 3.230469 C 4.679688 3.230469 4.644531 3.199219 4.644531 3.152344 C 4.644531 3.109375 4.679688 3.074219 4.71875 3.074219 C 4.757812 3.074219 4.792969 3.109375 4.792969 3.152344 "/>
<path style=" stroke:none;fill-rule:nonzero;fill:rgb(100%,100%,100%);fill-opacity:1;" d="M 8.21875 18.183594 L 8.464844 18.183594 L 8.464844 16.429688 L 8.21875 16.429688 Z M 8.21875 18.183594 "/>
<path style=" stroke:none;fill-rule:nonzero;fill:rgb(80%,80%,80%);fill-opacity:1;" d="M 8.683594 18.453125 C 8.753906 18.378906 8.800781 18.277344 8.800781 18.167969 C 8.800781 17.9375 8.609375 17.75 8.375 17.75 L 7.648438 17.75 C 7.414062 17.75 7.222656 17.9375 7.222656 18.167969 C 7.222656 18.277344 7.265625 18.371094 7.332031 18.445312 C 7.246094 18.523438 7.089844 18.671875 7.042969 18.722656 C 7.53125 18.929688 8.457031 18.914062 8.976562 18.71875 C 8.925781 18.679688 8.761719 18.527344 8.683594 18.453125 "/>
<path style=" stroke:none;fill-rule:nonzero;fill:rgb(80%,80%,80%);fill-opacity:1;" d="M 8 4.082031 C 8 4.09375 8 4.089844 8 4.078125 C 7.683594 3.804688 6.671875 3.6875 6.023438 3.847656 C 6.066406 3.925781 6.117188 4.171875 6.144531 4.273438 C 7.105469 3.960938 8 4.414062 8 4.414062 C 8 4.414062 8 4.410156 8 4.40625 C 8 4.410156 8 4.414062 8 4.417969 C 8 4.417969 8.894531 3.960938 9.855469 4.273438 C 9.878906 4.175781 9.933594 3.929688 9.976562 3.851562 C 9.324219 3.6875 8.316406 3.804688 8 4.082031 "/>
<path style=" stroke:none;fill-rule:nonzero;fill:rgb(100%,100%,100%);fill-opacity:1;" d="M 8.292969 15.226562 L 8.433594 15.226562 L 8.433594 5.566406 L 8.292969 5.566406 Z M 8.292969 15.226562 "/>
<path style=" stroke:none;fill-rule:nonzero;fill:rgb(100%,100%,100%);fill-opacity:1;" d="M 7.570312 14.53125 L 8.027344 14.53125 L 8.027344 5.570312 L 7.570312 5.570312 Z M 7.570312 14.53125 "/>
<path style=" stroke:none;fill-rule:nonzero;fill:rgb(17%,17%,17%);fill-opacity:1;" d="M 8.464844 9.015625 C 8.496094 8.910156 8.511719 8.652344 8.464844 8.570312 C 8.25 8.570312 7.917969 8.574219 7.722656 8.566406 C 8.167969 8.726562 8.464844 9.015625 8.464844 9.015625 "/>
<path style=" stroke:none;fill-rule:nonzero;fill:rgb(17%,17%,17%);fill-opacity:1;" d="M 6.859375 16.992188 C 7.117188 17.03125 8.492188 17.09375 8.492188 17.09375 L 8.714844 17.664062 C 8.714844 17.664062 7.515625 17.632812 6.859375 16.992188 "/>
<path style=" stroke:none;fill-rule:nonzero;fill:rgb(80%,80%,80%);fill-opacity:1;" d="M 12.488281 12.90625 C 12.058594 12.636719 11.535156 12.84375 10.972656 12.378906 C 10.972656 13.820312 12.042969 14.109375 11.441406 14.492188 C 10.902344 14.835938 10.382812 14.917969 9.84375 14.875 C 9.890625 14.804688 9.96875 14.671875 10.035156 14.609375 C 9.371094 14.523438 8.792969 14.570312 8.550781 14.597656 C 7.726562 14.363281 6.8125 14.0625 5.710938 14.046875 C 5.910156 14.207031 6.109375 14.484375 6.109375 14.960938 C 5.941406 14.316406 5.257812 13.980469 4.917969 13.851562 C 4.820312 13.816406 4.726562 13.796875 4.628906 13.78125 C 4.578125 13.847656 4.472656 13.957031 4.292969 14.023438 C 4.191406 13.96875 4.109375 14.066406 4.121094 14.09375 C 4.128906 14.109375 4.125 14.125 4.113281 14.140625 C 4.015625 14.265625 3.691406 14.207031 3.453125 14.125 C 3.175781 14.03125 3.1875 14.21875 3.238281 14.3125 C 3.328125 14.460938 3.410156 14.558594 3.453125 14.644531 C 3.820312 15.378906 4.09375 15.859375 4.910156 16.316406 C 5.683594 16.875 6.65625 17.164062 7.648438 17.195312 C 8.011719 17.320312 8.839844 17.546875 9.882812 17.382812 C 9.679688 17.25 9.476562 17.117188 9.410156 16.988281 C 10.734375 16.613281 11.878906 15.761719 12.347656 14.480469 C 12.351562 14.464844 12.355469 14.453125 12.363281 14.4375 C 12.445312 14.15625 12.167969 13.785156 11.773438 14.152344 C 12.113281 13.347656 12.679688 13.695312 12.5625 14.171875 C 13.015625 13.574219 13.617188 12.9375 14.425781 12.695312 C 13.6875 12.359375 12.964844 12.648438 12.488281 12.90625 "/>
<path style=" stroke:none;fill-rule:nonzero;fill:rgb(17%,17%,17%);fill-opacity:1;" d="M 8.480469 11.652344 C 8.511719 11.546875 8.523438 11.285156 8.480469 11.207031 C 8.265625 11.207031 7.933594 11.210938 7.738281 11.203125 C 8.183594 11.363281 8.480469 11.652344 8.480469 11.652344 "/>
<path style=" stroke:none;fill-rule:nonzero;fill:rgb(80%,80%,80%);fill-opacity:1;" d="M 8.792969 10.804688 C 8.792969 11.035156 8.597656 11.222656 8.359375 11.222656 L 7.625 11.222656 C 7.386719 11.222656 7.195312 11.035156 7.195312 10.804688 C 7.195312 10.574219 7.386719 10.390625 7.625 10.390625 L 8.359375 10.390625 C 8.597656 10.390625 8.792969 10.574219 8.792969 10.804688 "/>
<path style=" stroke:none;fill-rule:nonzero;fill:rgb(66%,66%,66%);fill-opacity:1;" d="M 8.347656 11.082031 C 7.917969 11.085938 7.546875 11.082031 7.546875 11.082031 C 7.546875 11.082031 8.15625 11.046875 8.539062 10.644531 C 8.640625 10.707031 8.660156 11.078125 8.347656 11.082031 "/>
<path style=" stroke:none;fill-rule:nonzero;fill:rgb(17%,17%,17%);fill-opacity:1;" d="M 8.488281 14.324219 C 8.519531 14.21875 8.53125 13.960938 8.488281 13.878906 C 8.273438 13.878906 7.941406 13.882812 7.746094 13.875 C 8.191406 14.035156 8.488281 14.324219 8.488281 14.324219 "/>
<path style=" stroke:none;fill-rule:nonzero;fill:rgb(80%,80%,80%);fill-opacity:1;" d="M 8.800781 13.464844 C 8.800781 13.695312 8.605469 13.882812 8.367188 13.882812 L 7.632812 13.882812 C 7.394531 13.882812 7.203125 13.695312 7.203125 13.464844 C 7.203125 13.234375 7.394531 13.050781 7.632812 13.050781 L 8.367188 13.050781 C 8.605469 13.050781 8.800781 13.234375 8.800781 13.464844 "/>
<path style=" stroke:none;fill-rule:nonzero;fill:rgb(66%,66%,66%);fill-opacity:1;" d="M 8.355469 13.742188 C 7.921875 13.746094 7.554688 13.738281 7.554688 13.738281 C 7.554688 13.738281 8.160156 13.707031 8.546875 13.304688 C 8.644531 13.371094 8.667969 13.738281 8.355469 13.742188 "/>
<path style=" stroke:none;fill-rule:nonzero;fill:rgb(80%,80%,80%);fill-opacity:1;" d="M 7.347656 7.492188 L 8.648438 7.492188 L 8.648438 6.246094 L 7.347656 6.246094 Z M 7.347656 7.492188 "/>
<path style=" stroke:none;fill-rule:nonzero;fill:rgb(66%,66%,66%);fill-opacity:1;" d="M 8.648438 7.488281 C 8.429688 7.542969 8.441406 7.722656 8.433594 7.789062 C 8.433594 7.789062 7.910156 7.792969 7.566406 7.789062 C 7.570312 7.769531 7.578125 7.523438 7.347656 7.488281 C 7.347656 7.488281 8.566406 7.492188 8.648438 7.488281 "/>
<path style=" stroke:none;fill-rule:nonzero;fill:rgb(66%,66%,66%);fill-opacity:1;" d="M 8.109375 7.507812 L 8.460938 7.507812 L 8.460938 6.246094 L 8.109375 6.246094 Z M 8.109375 7.507812 "/>
<path style=" stroke:none;fill-rule:nonzero;fill:rgb(80%,80%,80%);fill-opacity:1;" d="M 3.882812 13.996094 C 3.820312 13.972656 3.785156 13.917969 3.765625 13.878906 C 3.722656 13.785156 3.726562 13.664062 3.769531 13.550781 C 3.816406 13.4375 3.898438 13.34375 3.992188 13.304688 C 4.035156 13.285156 4.097656 13.269531 4.164062 13.292969 C 4.257812 13.332031 4.3125 13.4375 4.3125 13.5625 C 4.3125 13.617188 4.300781 13.679688 4.277344 13.742188 C 4.234375 13.855469 4.148438 13.945312 4.054688 13.988281 C 4.011719 14.003906 3.949219 14.023438 3.882812 13.996094 M 3.921875 13.152344 C 3.789062 13.210938 3.671875 13.332031 3.613281 13.488281 C 3.550781 13.644531 3.550781 13.8125 3.609375 13.945312 C 3.652344 14.042969 3.730469 14.117188 3.824219 14.152344 C 3.914062 14.1875 4.023438 14.183594 4.125 14.136719 C 4.261719 14.082031 4.375 13.957031 4.4375 13.800781 C 4.546875 13.523438 4.449219 13.226562 4.222656 13.140625 C 4.128906 13.101562 4.023438 13.109375 3.921875 13.152344 "/>
<path style=" stroke:none;fill-rule:nonzero;fill:rgb(80%,80%,80%);fill-opacity:1;" d="M 4.117188 13.953125 C 4.042969 13.929688 3.863281 13.878906 3.644531 13.871094 C 3.492188 13.867188 3.339844 13.777344 3.351562 13.734375 C 3.359375 13.703125 3.398438 13.6875 3.464844 13.675781 C 3.613281 13.65625 3.933594 13.671875 4.28125 13.726562 C 4.253906 13.808594 4.207031 13.886719 4.117188 13.953125 "/>
<path style=" stroke:none;fill-rule:nonzero;fill:rgb(45%,45%,45%);fill-opacity:1;" d="M 4.664062 3.828125 C 4.660156 4.460938 4.164062 4.664062 4.019531 4.699219 C 4.066406 4.558594 4.269531 3.902344 4.664062 3.828125 "/>
<path style=" stroke:none;fill-rule:nonzero;fill:rgb(80%,80%,80%);fill-opacity:1;" d="M 8.804688 8.15625 C 8.804688 8.390625 8.609375 8.578125 8.371094 8.578125 L 7.636719 8.578125 C 7.398438 8.578125 7.207031 8.390625 7.207031 8.15625 C 7.207031 7.929688 7.398438 7.742188 7.636719 7.742188 L 8.371094 7.742188 C 8.609375 7.742188 8.804688 7.929688 8.804688 8.15625 "/>
<path style=" stroke:none;fill-rule:nonzero;fill:rgb(66%,66%,66%);fill-opacity:1;" d="M 8.359375 8.433594 C 7.929688 8.4375 7.558594 8.433594 7.558594 8.433594 C 7.558594 8.433594 8.164062 8.398438 8.550781 7.996094 C 8.652344 8.0625 8.671875 8.433594 8.359375 8.433594 "/>
<path style=" stroke:none;fill-rule:nonzero;fill:rgb(100%,100%,100%);fill-opacity:1;" d="M 5.480469 14.203125 C 5.949219 14.507812 6.109375 14.960938 6.109375 14.960938 C 6.109375 14.960938 6.261719 14.582031 6.050781 14.289062 C 6.476562 14.167969 7.214844 14.359375 7.882812 14.613281 C 8.863281 14.988281 9.597656 15.113281 10.34375 14.988281 C 11.089844 14.863281 11.480469 14.714844 11.722656 14.351562 C 11.847656 14.15625 12.226562 14.195312 12.117188 14.488281 C 12.011719 14.78125 11.550781 15.613281 10.675781 15.84375 C 9.800781 16.070312 8.359375 16.453125 6.226562 15.933594 C 5.65625 15.792969 4.316406 15.445312 3.769531 14.757812 C 3.660156 14.621094 3.628906 14.363281 3.625 14.324219 C 3.617188 14.273438 3.652344 14.246094 3.773438 14.269531 C 4.148438 14.332031 4.21875 14.191406 4.359375 14.039062 C 4.511719 14.019531 5.054688 13.925781 5.480469 14.203125 "/>
<path style=" stroke:none;fill-rule:nonzero;fill:rgb(45%,45%,45%);fill-opacity:1;" d="M 11.960938 14.429688 C 11.3125 15.640625 10.050781 15.828125 8.730469 15.867188 C 8.195312 15.882812 7.660156 15.816406 7.203125 15.703125 C 7.589844 15.742188 7.992188 15.710938 8.234375 15.625 C 8.140625 15.140625 7.292969 14.789062 6.699219 14.757812 C 6.585938 14.632812 6.554688 14.46875 6.285156 14.375 C 6.476562 14.546875 6.460938 14.789062 6.554688 14.914062 C 7.039062 15.007812 7.628906 15.128906 7.914062 15.5 C 7.816406 15.628906 6.9375 15.558594 6.460938 15.453125 C 6.253906 15.378906 6.042969 15.257812 5.925781 15.039062 C 5.699219 15.289062 5.335938 15.199219 4.964844 15.015625 C 4.957031 14.875 4.871094 14.75 4.675781 14.714844 C 4.71875 14.777344 4.730469 14.839844 4.730469 14.894531 C 4.308594 14.65625 3.910156 14.367188 3.707031 14.382812 C 3.421875 14.402344 4.332031 15.960938 5.097656 16.128906 C 7.378906 17.414062 11.1875 16.847656 12.089844 14.679688 C 12.21875 14.367188 12.105469 14.164062 11.960938 14.429688 "/>
<path style=" stroke:none;fill-rule:nonzero;fill:rgb(100%,100%,100%);fill-opacity:1;" d="M 4.761719 14.871094 C 4.773438 15.007812 4.664062 15.128906 4.515625 15.144531 C 4.371094 15.160156 4.238281 15.058594 4.222656 14.921875 C 4.210938 14.785156 4.320312 14.664062 4.46875 14.648438 C 4.617188 14.636719 4.746094 14.734375 4.761719 14.871094 "/>
<path style=" stroke:none;fill-rule:nonzero;fill:rgb(17%,17%,17%);fill-opacity:1;" d="M 4.632812 14.898438 C 4.632812 14.964844 4.570312 15.019531 4.492188 15.019531 C 4.414062 15.019531 4.351562 14.964844 4.351562 14.898438 C 4.351562 14.832031 4.414062 14.777344 4.492188 14.777344 C 4.570312 14.777344 4.632812 14.832031 4.632812 14.898438 "/>
<path style=" stroke:none;fill-rule:nonzero;fill:rgb(100%,100%,100%);fill-opacity:1;" d="M 11.167969 12.675781 C 11.011719 13.203125 11.679688 13.914062 11.679688 13.914062 C 11.679688 13.914062 11.375 12.992188 11.167969 12.675781 "/>
<path style=" stroke:none;fill-rule:nonzero;fill:rgb(100%,100%,100%);fill-opacity:1;" d="M 11.636719 12.789062 C 11.40625 13.097656 11.839844 13.800781 11.839844 13.800781 C 11.839844 13.800781 11.816406 13.238281 11.636719 12.789062 "/>
<path style=" stroke:none;fill-rule:nonzero;fill:rgb(100%,100%,100%);fill-opacity:1;" d="M 12.359375 13.59375 C 12.542969 13.207031 12.90625 12.820312 13.289062 12.6875 C 12.488281 12.78125 12.308594 13.300781 12.359375 13.59375 "/>
<path style=" stroke:none;fill-rule:nonzero;fill:rgb(100%,100%,100%);fill-opacity:1;" d="M 8 1.898438 C 7.660156 1.257812 7.179688 1.75 6.332031 1.496094 C 6.183594 2.171875 6.035156 3.382812 5.992188 3.589844 C 6.570312 3.757812 7.078125 3.230469 7.769531 3.671875 C 7.695312 2.796875 7.980469 2.070312 7.980469 2.070312 C 7.980469 2.070312 7.992188 1.964844 8 1.898438 "/>
<path style=" stroke:none;fill-rule:nonzero;fill:rgb(80%,80%,80%);fill-opacity:1;" d="M 8 1.894531 C 7.933594 1.78125 7.871094 1.683594 7.757812 1.621094 C 7.660156 2.660156 7.632812 2.886719 7.296875 3.496094 C 7.503906 3.523438 7.660156 3.597656 7.769531 3.671875 C 7.691406 2.796875 8 2.113281 8 2.113281 C 8 2.113281 8 1.929688 8 1.894531 "/>
<path style=" stroke:none;fill-rule:nonzero;fill:rgb(100%,100%,100%);fill-opacity:1;" d="M 9.667969 1.492188 C 8.820312 1.746094 8.339844 1.253906 8 1.894531 C 8 2.113281 8 3.722656 8.003906 3.84375 C 8.8125 3.105469 9.371094 3.773438 10.007812 3.585938 C 9.964844 3.378906 9.816406 2.167969 9.667969 1.492188 "/>
<path style=" stroke:none;fill-rule:nonzero;fill:rgb(80%,80%,80%);fill-opacity:1;" d="M 7.765625 5.570312 L 8.234375 5.570312 L 8.234375 5.035156 L 7.765625 5.035156 Z M 7.765625 5.570312 "/>
<path style=" stroke:none;fill-rule:nonzero;fill:rgb(80%,80%,80%);fill-opacity:1;" d="M 8.003906 4.523438 L 8.238281 4.921875 L 7.761719 4.921875 Z M 8.003906 4.523438 "/>
<path style=" stroke:none;fill-rule:nonzero;fill:rgb(37%,37%,37%);fill-opacity:1;" d="M 4.046875 6.101562 L 4.046875 6.097656 C 4.042969 6.09375 4.042969 6.097656 4.046875 6.101562 "/>
<path style=" stroke:none;fill-rule:nonzero;fill:rgb(63%,63%,63%);fill-opacity:1;" d="M 5.9375 8.71875 C 5.9375 8.71875 6.585938 8.40625 6.648438 8.085938 C 6.449219 7.898438 5.945312 7.878906 5.945312 7.878906 C 5.945312 7.878906 6.523438 7.449219 6.5 7.132812 C 6.210938 7.003906 5.695312 7.078125 5.695312 7.078125 C 5.933594 6.757812 6 6.5 5.992188 6.273438 C 5.691406 6.226562 5.226562 6.398438 5.226562 6.398438 C 5.226562 6.398438 5.382812 5.855469 5.230469 5.574219 C 4.949219 5.503906 4.558594 5.980469 4.558594 5.980469 C 4.558594 5.980469 4.417969 5.390625 4.09375 5.074219 C 3.765625 5.390625 3.621094 5.980469 3.621094 5.980469 C 3.621094 5.980469 3.230469 5.503906 2.949219 5.574219 C 2.800781 5.855469 2.953125 6.398438 2.953125 6.398438 C 2.953125 6.398438 2.488281 6.226562 2.1875 6.273438 C 2.179688 6.5 2.246094 6.757812 2.488281 7.078125 C 2.488281 7.078125 1.96875 7.003906 1.683594 7.132812 C 1.660156 7.449219 2.238281 7.878906 2.238281 7.878906 C 2.238281 7.878906 1.730469 7.898438 1.535156 8.085938 C 1.597656 8.40625 2.242188 8.71875 2.242188 8.71875 C 2.242188 8.71875 1.859375 8.796875 1.625 9.054688 C 1.773438 9.25 2.109375 9.433594 2.371094 9.476562 C 2.144531 9.65625 2.019531 9.796875 1.960938 9.902344 C 2.328125 10.191406 3.105469 10.234375 3.878906 9.996094 C 3.878906 10.144531 3.882812 11.3125 3.699219 11.847656 L 4.480469 11.847656 C 4.300781 11.3125 4.300781 10.144531 4.300781 9.996094 C 5.078125 10.234375 5.851562 10.191406 6.21875 9.902344 C 6.164062 9.796875 6.035156 9.65625 5.808594 9.476562 C 6.070312 9.433594 6.40625 9.25 6.558594 9.054688 C 6.320312 8.796875 5.9375 8.71875 5.9375 8.71875 "/>
<path style=" stroke:none;fill-rule:nonzero;fill:rgb(38%,38%,38%);fill-opacity:1;" d="M 5.234375 8.738281 C 5.304688 8.699219 5.679688 8.585938 5.871094 8.261719 C 5.679688 8.078125 5.234375 8.074219 5.234375 8.074219 C 5.234375 8.074219 5.632812 7.816406 5.765625 7.433594 C 5.425781 7.335938 5.070312 7.433594 5.070312 7.433594 C 5.070312 7.433594 5.359375 7.03125 5.398438 6.691406 C 5.070312 6.726562 4.722656 6.894531 4.722656 6.894531 C 4.820312 6.683594 4.871094 6.386719 4.828125 6.128906 C 4.664062 6.160156 4.515625 6.339844 4.425781 6.453125 C 4.34375 6.195312 4.203125 6.113281 4.105469 6.0625 C 3.945312 6.292969 3.914062 6.4375 3.933594 6.753906 C 3.988281 6.699219 4.074219 6.617188 4.214844 6.539062 C 4.296875 6.988281 4.132812 7.3125 4.132812 7.3125 C 4.132812 7.3125 4.335938 7.183594 4.605469 7.152344 C 4.613281 7.398438 4.523438 7.65625 4.253906 7.957031 C 4.253906 7.957031 4.488281 7.820312 4.761719 7.796875 C 4.71875 8.144531 4.5 8.378906 4.277344 8.578125 C 4.425781 8.507812 4.683594 8.515625 4.859375 8.570312 C 4.765625 8.835938 4.554688 8.964844 4.25 9.132812 C 4.4375 9.132812 4.636719 9.15625 4.746094 9.230469 C 4.621094 9.457031 4.320312 9.5625 4.109375 9.621094 C 4.59375 9.800781 5.0625 9.878906 5.519531 9.769531 C 5.488281 9.636719 5.316406 9.472656 5.113281 9.359375 C 5.296875 9.316406 5.574219 9.261719 5.816406 9.058594 C 5.660156 8.90625 5.46875 8.800781 5.234375 8.738281 "/>
<path style=" stroke:none;fill-rule:nonzero;fill:rgb(80%,80%,80%);fill-opacity:1;" d="M 2.640625 18.984375 C 2.75 19.339844 2.457031 20.03125 2.667969 20.433594 C 2.488281 20.425781 1.359375 20.628906 1.195312 20.484375 C 1.03125 20.34375 0.589844 20.039062 1.03125 19.804688 C 1.46875 19.570312 2.582031 19.15625 2.640625 18.984375 "/>
<path style=" stroke:none;fill-rule:nonzero;fill:rgb(80%,80%,80%);fill-opacity:1;" d="M 13.410156 18.945312 C 13.539062 20.09375 13.34375 20.21875 13.355469 20.550781 C 13.464844 20.578125 14.363281 20.761719 14.679688 20.59375 C 14.996094 20.425781 15.214844 20.019531 15.070312 19.851562 C 14.921875 19.6875 14.191406 19.234375 13.898438 19.183594 C 13.605469 19.136719 13.492188 19.03125 13.410156 18.945312 "/>
<path style="fill-rule:nonzero;fill:rgb(11%,11%,11%);stroke-opacity:1;stroke-miterlimit:4;" d="M 0.00319145 -0.00144553 C -1.045544 0.565033 -2.597673 0.89977 -3.478612 2.101391 C -3.805817 0.891187 -3.008778 0.195964 -3.042337 -1.580718 C -2.304027 -0.198855 -2.908099 0.144466 -2.782251 0.796774 C -2.186569 0.0328865 -1.297241 -0.0786926 -0.676389 -0.396264 C 0.12065 -0.816831 0.615653 -1.735212 -1.037155 -1.726629 C -4.250481 -1.718046 -24.906383 -1.735212 -28.195218 -1.735212 C -29.898365 -1.735212 -29.394972 -0.816831 -28.597933 -0.404847 C -27.977081 -0.0786926 -27.070973 0.0328865 -26.475291 0.81394 C -26.357833 0.161632 -26.970295 -0.181689 -26.231985 -1.563552 C -26.257154 0.221713 -25.468505 0.882604 -25.778931 2.101391 C -26.659869 0.89977 -28.237168 0.565033 -29.285903 -0.00144553 C -30.175231 -0.473511 -30.183621 -0.791082 -30.183621 -2.318857 C -30.183621 -3.340234 -30.175231 -4.627685 -30.183621 -5.494568 C -30.192011 -6.103962 -29.487261 -6.464448 -28.639882 -6.438699 L -0.65122 -6.438699 C 0.196159 -6.464448 0.909299 -6.112545 0.909299 -5.503151 C 0.917689 -4.636268 0.900909 -3.331651 0.909299 -2.310274 C 0.926079 -0.739584 0.892519 -0.473511 0.00319145 -0.00144553 " transform="matrix(0.46559,0,0,-0.455115,14.811014,19.499342)"/>
<path style=" stroke:none;fill-rule:nonzero;fill:rgb(100%,100%,100%);fill-opacity:1;" d="M 1.484375 20.886719 L 1.761719 20.886719 L 1.957031 21.414062 C 1.960938 21.425781 1.972656 21.46875 1.988281 21.542969 C 2.007812 21.46875 2.015625 21.425781 2.023438 21.414062 L 2.210938 20.886719 L 2.492188 20.886719 L 2.089844 21.832031 L 1.886719 21.832031 L 1.484375 20.886719 "/>
<path style=" stroke:none;fill-rule:nonzero;fill:rgb(100%,100%,100%);fill-opacity:1;" d="M 2.644531 21.832031 L 2.910156 21.832031 L 2.910156 20.886719 L 2.644531 20.886719 Z M 2.644531 21.832031 "/>
<path style=" stroke:none;fill-rule:nonzero;fill:rgb(100%,100%,100%);fill-opacity:1;" d="M 3.707031 21.480469 L 3.609375 21.167969 C 3.605469 21.152344 3.59375 21.109375 3.574219 21.042969 C 3.558594 21.109375 3.546875 21.152344 3.542969 21.167969 L 3.445312 21.480469 Z M 3.410156 20.886719 L 3.738281 20.886719 L 4.070312 21.832031 L 3.808594 21.832031 L 3.761719 21.660156 L 3.390625 21.660156 L 3.339844 21.832031 L 3.078125 21.832031 L 3.410156 20.886719 "/>
<path style=" stroke:none;fill-rule:nonzero;fill:rgb(100%,100%,100%);fill-opacity:1;" d="M 4.59375 20.886719 L 4.871094 20.886719 L 5.066406 21.414062 C 5.070312 21.425781 5.078125 21.46875 5.097656 21.542969 C 5.113281 21.46875 5.128906 21.425781 5.132812 21.414062 L 5.324219 20.886719 L 5.601562 20.886719 L 5.199219 21.832031 L 5 21.832031 L 4.59375 20.886719 "/>
<path style=" stroke:none;fill-rule:nonzero;fill:rgb(100%,100%,100%);fill-opacity:1;" d="M 5.75 20.886719 L 6.339844 20.886719 L 6.339844 21.09375 L 6.003906 21.09375 L 6.003906 21.257812 L 6.320312 21.257812 L 6.320312 21.460938 L 6.003906 21.460938 L 6.003906 21.621094 L 6.339844 21.621094 L 6.339844 21.832031 L 5.75 21.832031 Z M 5.75 20.886719 "/>
<path style=" stroke:none;fill-rule:nonzero;fill:rgb(100%,100%,100%);fill-opacity:1;" d="M 6.875 21.332031 C 6.984375 21.332031 7.039062 21.300781 7.039062 21.214844 C 7.039062 21.117188 6.988281 21.085938 6.878906 21.085938 L 6.828125 21.085938 L 6.828125 21.332031 Z M 6.578125 20.886719 L 6.871094 20.886719 C 7.003906 20.886719 7.109375 20.890625 7.191406 20.953125 C 7.261719 21.003906 7.296875 21.085938 7.296875 21.183594 C 7.296875 21.328125 7.222656 21.421875 7.082031 21.453125 L 7.347656 21.832031 L 7.046875 21.832031 L 6.828125 21.460938 L 6.828125 21.832031 L 6.578125 21.832031 L 6.578125 20.886719 "/>
<path style=" stroke:none;fill-rule:nonzero;fill:rgb(100%,100%,100%);fill-opacity:1;" d="M 7.519531 21.832031 L 7.785156 21.832031 L 7.785156 20.886719 L 7.519531 20.886719 Z M 7.519531 21.832031 "/>
<path style=" stroke:none;fill-rule:nonzero;fill:rgb(100%,100%,100%);fill-opacity:1;" d="M 8.203125 21.109375 L 7.988281 21.109375 L 7.988281 20.886719 L 8.683594 20.886719 L 8.683594 21.109375 L 8.46875 21.109375 L 8.46875 21.832031 L 8.203125 21.832031 Z M 8.203125 21.109375 "/>
<path style=" stroke:none;fill-rule:nonzero;fill:rgb(100%,100%,100%);fill-opacity:1;" d="M 9.394531 21.480469 L 9.296875 21.167969 C 9.292969 21.152344 9.28125 21.109375 9.265625 21.042969 C 9.246094 21.109375 9.234375 21.152344 9.230469 21.167969 L 9.132812 21.480469 Z M 9.097656 20.886719 L 9.425781 20.886719 L 9.761719 21.832031 L 9.5 21.832031 L 9.449219 21.660156 L 9.078125 21.660156 L 9.027344 21.832031 L 8.765625 21.832031 L 9.097656 20.886719 "/>
<path style=" stroke:none;fill-rule:nonzero;fill:rgb(100%,100%,100%);fill-opacity:1;" d="M 10.191406 21.65625 C 10.265625 21.65625 10.3125 21.613281 10.3125 21.558594 C 10.3125 21.484375 10.261719 21.460938 10.152344 21.433594 C 9.976562 21.386719 9.890625 21.320312 9.890625 21.171875 C 9.890625 20.996094 10.023438 20.867188 10.226562 20.867188 C 10.332031 20.867188 10.425781 20.894531 10.511719 20.949219 L 10.429688 21.132812 C 10.367188 21.085938 10.304688 21.058594 10.242188 21.058594 C 10.179688 21.058594 10.136719 21.09375 10.136719 21.136719 C 10.136719 21.207031 10.203125 21.21875 10.289062 21.242188 C 10.460938 21.289062 10.554688 21.347656 10.554688 21.523438 C 10.554688 21.71875 10.414062 21.855469 10.1875 21.855469 C 10.050781 21.855469 9.949219 21.8125 9.84375 21.71875 L 9.964844 21.527344 C 10.039062 21.613281 10.117188 21.65625 10.191406 21.65625 "/>
<path style=" stroke:none;fill-rule:nonzero;fill:rgb(100%,100%,100%);fill-opacity:1;" d="M 11.132812 20.886719 L 11.410156 20.886719 L 11.605469 21.414062 C 11.609375 21.425781 11.621094 21.46875 11.636719 21.542969 C 11.65625 21.46875 11.667969 21.425781 11.671875 21.414062 L 11.863281 20.886719 L 12.140625 20.886719 L 11.738281 21.832031 L 11.539062 21.832031 L 11.132812 20.886719 "/>
<path style=" stroke:none;fill-rule:nonzero;fill:rgb(100%,100%,100%);fill-opacity:1;" d="M 12.292969 21.832031 L 12.558594 21.832031 L 12.558594 20.886719 L 12.292969 20.886719 Z M 12.292969 21.832031 "/>
<path style=" stroke:none;fill-rule:nonzero;fill:rgb(100%,100%,100%);fill-opacity:1;" d="M 12.976562 21.109375 L 12.765625 21.109375 L 12.765625 20.886719 L 13.457031 20.886719 L 13.457031 21.109375 L 13.242188 21.109375 L 13.242188 21.832031 L 12.976562 21.832031 Z M 12.976562 21.109375 "/>
<path style=" stroke:none;fill-rule:nonzero;fill:rgb(100%,100%,100%);fill-opacity:1;" d="M 14.167969 21.480469 L 14.070312 21.167969 C 14.066406 21.152344 14.054688 21.109375 14.039062 21.042969 C 14.019531 21.109375 14.007812 21.152344 14.003906 21.167969 L 13.90625 21.480469 Z M 13.871094 20.886719 L 14.203125 20.886719 L 14.535156 21.832031 L 14.273438 21.832031 L 14.222656 21.660156 L 13.851562 21.660156 L 13.800781 21.832031 L 13.539062 21.832031 L 13.871094 20.886719 "/>
<path style=" stroke:none;fill-rule:nonzero;fill:rgb(66%,66%,66%);fill-opacity:1;" d="M 8.523438 17.9375 C 8.585938 18.011719 8.632812 18.359375 8.320312 18.386719 C 7.789062 18.425781 7.53125 18.375 7.53125 18.375 C 7.53125 18.375 8.246094 18.292969 8.523438 17.9375 "/>
<path style=" stroke:none;fill-rule:nonzero;fill:rgb(66%,66%,66%);fill-opacity:1;" d="M 10.929688 7.226562 C 10.960938 6.800781 11.167969 6.699219 11.453125 6.707031 C 11.609375 6.710938 11.851562 6.710938 12.433594 6.707031 C 12.105469 6.738281 11.695312 6.90625 11.644531 7.324219 C 11.59375 7.710938 11.589844 9.054688 11.582031 9.625 C 11.292969 9.636719 10.90625 9.625 10.824219 9.648438 C 10.863281 9.054688 10.898438 7.65625 10.929688 7.226562 "/>
<path style=" stroke:none;fill-rule:nonzero;fill:rgb(66%,66%,66%);fill-opacity:1;" d="M 8.003906 5.570312 L 8.148438 5.570312 L 8.148438 5.035156 L 8.003906 5.035156 Z M 8.003906 5.570312 "/>
<path style=" stroke:none;fill-rule:nonzero;fill:rgb(66%,66%,66%);fill-opacity:1;" d="M 8.148438 4.921875 L 8.003906 4.523438 L 8.003906 4.921875 Z M 8.148438 4.921875 "/>
</g>
</svg>
