<?xml version="1.0" encoding="utf-8"?>
<!-- Generator: Adobe Illustrator 27.2.0, SVG Export Plug-In . SVG Version: 6.00 Build 0)  -->
<svg version="1.1" id="Layer_1" xmlns="http://www.w3.org/2000/svg" xmlns:xlink="http://www.w3.org/1999/xlink" x="0px" y="0px"
	 viewBox="0 0 108.2 122.9" style="enable-background:new 0 0 108.2 122.9;" xml:space="preserve">
<style type="text/css">
	.st0{fill-rule:evenodd;clip-rule:evenodd;fill:#FFFFFF;}
</style>
<g>
	<path class="st0" d="M54.1,0c5.7,0,10.5,7.3,13.6,19.1c1.1,4.1,2.1,8.8,2.8,13.9c4.8-1.9,9.3-3.4,13.4-4.5
		c11.8-3.1,20.5-2.6,23.3,2.3c2.8,4.9-1.1,12.7-9.7,21.3c-3,3-6.6,6.2-10.6,9.4c1.6,1.3,3.2,2.6,4.6,3.8c-1.3,0.9-2.4,2.2-3.2,3.6
		c-1.7-1.4-3.5-2.9-5.4-4.4c-0.4,0.3-0.8,0.6-1.2,0.9c-0.9,6.2-3.7,11.7-7.9,15.9l-0.2,0.2c-0.7,0.7-1.5,1.4-2.3,2
		c-0.1,0.5-0.1,1-0.2,1.5c5,2,9.8,3.6,14,4.8c9.6,2.5,16.3,2.7,17.9,0c0.8-1.5,0.2-3.8-1.5-6.7c1.4-0.6,2.7-1.6,3.8-2.8
		c2.9,4.7,3.7,8.8,2,11.8c-2.8,4.9-11.5,5.4-23.3,2.3c-4.1-1.1-8.6-2.6-13.4-4.5c-0.8,5.1-1.7,9.8-2.8,13.9
		c-3.2,11.8-8,19.1-13.7,19.1s-10.5-7.3-13.7-19.1c-1.1-4.1-2.1-8.8-2.8-13.9c-1.7,0.7-3.4,1.3-5.1,1.9c-0.1-1.7-0.7-3.2-1.5-4.6
		C33,86.6,35,85.9,37,85c-0.1-0.5-0.1-1-0.2-1.5c-0.9-0.7-1.7-1.4-2.5-2.2l0,0c-4.2-4.2-7.1-9.8-8-15.9c-0.4-0.3-0.8-0.6-1.2-0.9
		c-4.3,3.3-8,6.6-11.1,9.7C7,81.3,3.5,87,5.1,89.8c0.9,1.5,3.4,2.2,7.1,2c0,0.3,0,0.6,0,0.9c0,1.3,0.2,2.6,0.7,3.7
		c-5.9,0.3-10.1-1.1-11.9-4.2c-2.8-4.9,1.1-12.7,9.7-21.3c3-3,6.6-6.2,10.6-9.4c-4-3.2-7.6-6.4-10.6-9.4C2,43.4-1.9,35.6,0.9,30.7
		c2.8-4.9,11.5-5.4,23.3-2.3c4.1,1.1,8.6,2.6,13.4,4.5c0.3-1.8,0.6-3.6,0.9-5.4c1.4,0.7,3,1.1,4.6,1.1h0.1c-0.4,2-0.7,4-1,6.2
		c0.5,0.2,0.9,0.4,1.3,0.6c3.2-1.3,6.8-2,10.5-2s7.3,0.7,10.5,2c0.4-0.2,0.9-0.4,1.3-0.6c-0.8-5.4-1.7-10.3-2.9-14.5
		c-2.6-9.6-5.8-15.5-9-15.5c-1.8,0-3.5,1.8-5.2,5.1c-1.3-0.9-2.8-1.5-4.4-1.7C47.2,3,50.5,0,54.1,0L54.1,0L54.1,0z M54.1,45.2
		c7.1,0,12.8,2.7,12.8,6c0,3.3-5.7,6-12.8,6s-12.8-2.7-12.8-6S47.1,45.2,54.1,45.2L54.1,45.2L54.1,45.2z M41.3,67.6v4.6
		c2.3,8.1,24.8,6.5,25.6-0.4v-4.6C65.8,74.8,43.1,75.4,41.3,67.6L41.3,67.6L41.3,67.6L41.3,67.6z M41.3,54.1v4.5
		c2.3,7.9,24.9,6.8,25.7,0.1v-4.5C65.8,61.6,43.1,61.6,41.3,54.1L41.3,54.1L41.3,54.1z M41.3,60.7v4.6c2.3,8.1,24.9,7,25.7,0.1v-4.6
		C65.8,68.3,43.1,68.4,41.3,60.7L41.3,60.7L41.3,60.7z M54.1,37.4c13.3,0,24,10.8,24,24s-10.8,24-24,24s-24-10.8-24-24
		S40.8,37.4,54.1,37.4L54.1,37.4z M71.4,39.3c0.9,0.7,1.8,1.5,2.6,2.3c4.2,4.2,7.1,9.8,7.9,16c0.4,0.3,0.8,0.6,1.2,0.9
		c4.3-3.3,8-6.6,11.1-9.7c7-7,10.5-12.8,8.9-15.6c-1.6-2.8-8.3-2.6-17.9,0c-4.2,1.1-9,2.7-14,4.8C71.3,38.3,71.3,38.8,71.4,39.3
		L71.4,39.3z M64.6,87.5c-3.2,1.3-6.8,2-10.5,2c-3.7,0-7.2-0.7-10.5-2c-0.5,0.2-0.9,0.4-1.4,0.6c0.8,5.4,1.7,10.3,2.9,14.5
		c2.6,9.6,5.8,15.5,9,15.5c3.2,0,6.4-5.9,9-15.5c1.1-4.2,2.1-9.1,2.9-14.5l0,0C65.5,87.9,65.1,87.7,64.6,87.5L64.6,87.5z M26.4,57.5
		c0.9-6.2,3.7-11.7,7.9-15.9l0.2-0.2c0.7-0.7,1.5-1.4,2.3-2c0-0.5,0.1-1,0.2-1.5c-5-2-9.8-3.6-14-4.8c-9.6-2.5-16.3-2.7-17.9,0
		C3.5,35.9,7,41.6,14,48.7c3.1,3.1,6.8,6.4,11.1,9.7l0,0C25.5,58.1,25.9,57.8,26.4,57.5L26.4,57.5z M96.8,66.8c3.7,0,6.7,3,6.7,6.7
		s-3,6.7-6.7,6.7s-6.7-3-6.7-6.7S93.1,66.8,96.8,66.8L96.8,66.8L96.8,66.8z M22.4,85.8c3.7,0,6.6,3,6.6,6.7s-3,6.7-6.6,6.7
		s-6.6-3-6.6-6.7S18.7,85.8,22.4,85.8L22.4,85.8L22.4,85.8z M43.2,11.8c3.7,0,6.7,3,6.7,6.6s-3,6.6-6.7,6.6c-3.7,0-6.7-3-6.7-6.6
		S39.5,11.8,43.2,11.8L43.2,11.8L43.2,11.8z"/>
</g>
</svg>
