<?xml version="1.0" encoding="utf-8"?>
<!-- Generator: Adobe Illustrator 27.2.0, SVG Export Plug-In . SVG Version: 6.00 Build 0)  -->
<svg version="1.1" id="Layer_1" xmlns="http://www.w3.org/2000/svg" xmlns:xlink="http://www.w3.org/1999/xlink" x="0px" y="0px"
	 viewBox="0 0 283.5 283.5" style="enable-background:new 0 0 283.5 283.5;" xml:space="preserve">
<style type="text/css">
	.st0{fill:#FFFFFF;}
</style>
<g>
	<path class="st0" d="M75.9,205.8c-9.8,0-18.3-1.3-25.4-4c-7.1-2.7-13.3-6.5-18.1-11.1c-4.8-4.6-8.5-10.3-10.8-16.6
		c-2.3-6.5-3.5-13.3-3.5-20.7V77.7h42v71c0,6,1.5,10.6,4.3,13.9c2.8,3.3,7,5,12.3,5c5.3,0,9.3-1.7,12.3-5c2.8-3.3,4.3-8,4.3-13.9
		v-71h41.5v75.7c0,7.5-1.3,14.3-3.8,20.7s-6.3,12-11.1,16.6c-5,4.6-11.1,8.5-18.4,11.1C94.2,204.5,85.7,205.8,75.9,205.8z"/>
	<path class="st0" d="M223.5,154.8h-34.2v47.3h-41.8V77.7h41.7v42.2h34.2V77.7h42v124.5h-41.8L223.5,154.8L223.5,154.8z"/>
</g>
</svg>
